<svg width="40" height="41" viewBox="0 0 40 41" fill="none" xmlns="http://www.w3.org/2000/svg">
<rect y="0.519135" width="39.9617" height="39.9617" rx="19.9809" fill="#F1F3F6"/>
<mask id="mask0_1989_1892" style="mask-type:luminance" maskUnits="userSpaceOnUse" x="11" y="22" width="17" height="9">
<path fill-rule="evenodd" clip-rule="evenodd" d="M11.9883 22.9936H27.813V30.3606H11.9883V22.9936Z" fill="white"/>
</mask>
<g mask="url(#mask0_1989_1892)">
<path fill-rule="evenodd" clip-rule="evenodd" d="M19.9007 24.4922C15.6438 24.4922 13.4859 25.2235 13.4859 26.6671C13.4859 28.1237 15.6438 28.862 19.9007 28.862C24.1566 28.862 26.3136 28.1307 26.3136 26.6871C26.3136 25.2305 24.1566 24.4922 19.9007 24.4922ZM19.9017 30.3606C17.9446 30.3606 11.9883 30.3606 11.9883 26.6671C11.9883 23.3743 16.505 22.9936 19.9017 22.9936C21.8588 22.9936 27.8131 22.9936 27.8131 26.6871C27.8131 29.9799 23.2974 30.3606 19.9017 30.3606Z" fill="#0C111A"/>
</g>
<mask id="mask1_1989_1892" style="mask-type:luminance" maskUnits="userSpaceOnUse" x="14" y="10" width="12" height="12">
<path fill-rule="evenodd" clip-rule="evenodd" d="M14.5957 10.5096H25.2056V21.118H14.5957V10.5096Z" fill="white"/>
</mask>
<g mask="url(#mask1_1989_1892)">
<path fill-rule="evenodd" clip-rule="evenodd" d="M19.9019 11.9359C17.7629 11.9359 16.0226 13.6752 16.0226 15.8141C16.0156 17.9461 17.7429 19.6844 19.8729 19.6924L19.9019 20.4057V19.6924C22.0398 19.6924 23.7792 17.9521 23.7792 15.8141C23.7792 13.6752 22.0398 11.9359 19.9019 11.9359ZM19.9017 21.1179H19.8697C16.9505 21.109 14.5857 18.7282 14.5957 15.811C14.5957 12.8888 16.9755 10.5091 19.9017 10.5091C22.8269 10.5091 25.2056 12.8888 25.2056 15.814C25.2056 18.7392 22.8269 21.1179 19.9017 21.1179Z" fill="#0C111A"/>
</g>
</svg>
