<svg width="49" height="50" viewBox="0 0 49 50" fill="none" xmlns="http://www.w3.org/2000/svg">
<circle cx="24.7449" cy="25.0303" r="24.1707" fill="#D9D9D9" fill-opacity="0.08"/>
<path d="M23.8815 13.5813H15.956C13.4245 13.5813 12.1523 14.8662 12.1523 17.4232V37.752H19.0219V32.9815C19.0219 32.4599 19.4544 32.0273 19.976 32.0273C20.4976 32.0273 20.9301 32.4472 20.9301 32.9815V37.752H27.6725V17.4232C27.6725 14.8662 26.413 13.5813 23.8815 13.5813ZM23.1564 25.9847H16.8593C16.3377 25.9847 15.9052 25.5521 15.9052 25.0306C15.9052 24.509 16.3377 24.0765 16.8593 24.0765H23.1564C23.6779 24.0765 24.1105 24.509 24.1105 25.0306C24.1105 25.5521 23.6779 25.9847 23.1564 25.9847ZM23.1564 21.2141H16.8593C16.3377 21.2141 15.9052 20.7816 15.9052 20.26C15.9052 19.7385 16.3377 19.3059 16.8593 19.3059H23.1564C23.6779 19.3059 24.1105 19.7385 24.1105 20.26C24.1105 20.7816 23.6779 21.2141 23.1564 21.2141Z" fill="white"/>
<path d="M38.74 36.7981H35.8523V32.9817C37.0608 32.5873 37.9386 31.4551 37.9386 30.1193V27.5751C37.9386 25.9086 36.5774 24.5474 34.9109 24.5474C33.2444 24.5474 31.8832 25.9086 31.8832 27.5751V30.1193C31.8832 31.4424 32.7483 32.5619 33.9313 32.9689V36.7981H10.7529C10.2314 36.7981 9.79883 37.2306 9.79883 37.7522C9.79883 38.2738 10.2314 38.7063 10.7529 38.7063H34.8346C34.86 38.7063 34.8727 38.719 34.8982 38.719C34.9236 38.719 34.9363 38.7063 34.9618 38.7063H38.74C39.2616 38.7063 39.6941 38.2738 39.6941 37.7522C39.6941 37.2306 39.2616 36.7981 38.74 36.7981Z" fill="white"/>
</svg>
