<svg width="109" height="107" viewBox="0 0 109 107" fill="none" xmlns="http://www.w3.org/2000/svg">
<circle cx="24.3953" cy="25.0303" r="24.1707" fill="#D9D9D9" fill-opacity="0.08"/>
<path d="M37.1172 16.3163V21.0233C37.1172 23.8856 35.9723 25.0305 33.11 25.0305H29.6752C26.8129 25.0305 25.668 23.8856 25.668 21.0233V16.3163C25.668 13.454 26.8129 12.3091 29.6752 12.3091H33.11C35.9723 12.3091 37.1172 13.454 37.1172 16.3163Z" fill="white"/>
<path d="M23.1251 29.0378V33.7447C23.1251 36.607 21.9801 37.7519 19.1178 37.7519H15.683C12.8207 37.7519 11.6758 36.607 11.6758 33.7447V29.0378C11.6758 26.1754 12.8207 25.0305 15.683 25.0305H19.1178C21.9801 25.0305 23.1251 26.1754 23.1251 29.0378Z" fill="white"/>
<path d="M27.9318 37.752C27.5883 37.752 27.2703 37.5612 27.1049 37.2686C26.9395 36.9633 26.9395 36.6071 27.1176 36.3018L28.3516 34.2409C28.6188 33.7829 29.2039 33.643 29.6619 33.9102C30.1199 34.1773 30.2598 34.7625 29.9927 35.2205L29.7637 35.6021C32.9059 34.7879 35.2212 31.9383 35.2212 28.5544C35.2212 28.0329 35.6537 27.6003 36.1753 27.6003C36.6969 27.6003 37.1167 28.0329 37.1167 28.5672C37.1167 33.6303 32.9949 37.752 27.9318 37.752Z" fill="white"/>
<path d="M12.6299 22.448C12.1083 22.448 11.6758 22.0282 11.6758 21.4939C11.6758 16.4308 15.7975 12.3091 20.8606 12.3091C21.2168 12.3091 21.5222 12.4999 21.7003 12.7925C21.8656 13.0978 21.8656 13.454 21.6875 13.7593L20.4536 15.8075C20.1737 16.2654 19.5885 16.4181 19.1433 16.1382C18.6853 15.8711 18.5453 15.2859 18.8125 14.8279L19.0415 14.4463C15.912 15.2604 13.584 18.11 13.584 21.4939C13.584 22.0282 13.1515 22.448 12.6299 22.448Z" fill="white"/>
<path d="M2.19122 76.5572C2.19122 77.0895 2.26022 77.6169 2.39823 78.1393C2.53624 78.6519 2.7531 79.1152 3.04883 79.5292C3.34456 79.9433 3.72409 80.2784 4.1874 80.5347C4.65071 80.7812 5.20274 80.9044 5.84349 80.9044C6.48424 80.9044 7.03627 80.7812 7.49958 80.5347C7.96289 80.2784 8.34241 79.9433 8.63814 79.5292C8.93387 79.1152 9.15074 78.6519 9.28874 78.1393C9.42675 77.6169 9.49576 77.0895 9.49576 76.5572C9.49576 76.0248 9.42675 75.5024 9.28874 74.9898C9.15074 74.4673 8.93387 73.9991 8.63814 73.5851C8.34241 73.171 7.96289 72.8408 7.49958 72.5944C7.03627 72.3381 6.48424 72.2099 5.84349 72.2099C5.20274 72.2099 4.65071 72.3381 4.1874 72.5944C3.72409 72.8408 3.34456 73.171 3.04883 73.5851C2.7531 73.9991 2.53624 74.4673 2.39823 74.9898C2.26022 75.5024 2.19122 76.0248 2.19122 76.5572ZM0.786497 76.5572C0.786497 75.8375 0.890003 75.1475 1.09701 74.487C1.31388 73.8167 1.63426 73.2253 2.05814 72.7127C2.48202 72.2001 3.0094 71.791 3.64029 71.4854C4.27119 71.1798 5.00558 71.027 5.84349 71.027C6.68139 71.027 7.41579 71.1798 8.04668 71.4854C8.67757 71.791 9.20495 72.2001 9.62883 72.7127C10.0527 73.2253 10.3682 73.8167 10.5752 74.487C10.792 75.1475 10.9005 75.8375 10.9005 76.5572C10.9005 77.2768 10.792 77.9717 10.5752 78.642C10.3682 79.3025 10.0527 79.889 9.62883 80.4016C9.20495 80.9142 8.67757 81.3233 8.04668 81.6289C7.41579 81.9247 6.68139 82.0725 5.84349 82.0725C5.00558 82.0725 4.27119 81.9247 3.64029 81.6289C3.0094 81.3233 2.48202 80.9142 2.05814 80.4016C1.63426 79.889 1.31388 79.3025 1.09701 78.642C0.890003 77.9717 0.786497 77.2768 0.786497 76.5572ZM18.7339 81.8359H17.5509V80.6234H17.5214C17.2552 81.0966 16.9151 81.4466 16.5011 81.6733C16.0871 81.8902 15.5991 81.9986 15.0372 81.9986C14.5345 81.9986 14.1155 81.9345 13.7804 81.8064C13.4452 81.6684 13.1741 81.4761 12.9671 81.2297C12.7601 80.9832 12.6122 80.6924 12.5235 80.3573C12.4447 80.0123 12.4052 79.6327 12.4052 79.2187V74.1913H13.6621V79.3666C13.6621 79.8398 13.8001 80.2143 14.0761 80.4904C14.3521 80.7664 14.7316 80.9044 15.2147 80.9044C15.5991 80.9044 15.9294 80.8452 16.2054 80.7269C16.4912 80.6087 16.7278 80.4411 16.9151 80.2242C17.1024 80.0073 17.2404 79.756 17.3291 79.4701C17.4277 79.1744 17.477 78.854 17.477 78.509V74.1913H18.7339V81.8359ZM20.5772 74.1913H21.7601V75.803H21.7897C22.0953 75.182 22.4699 74.7236 22.9135 74.4279C23.3571 74.1322 23.919 73.9942 24.5991 74.0139V75.3447C24.0964 75.3447 23.6676 75.4137 23.3127 75.5517C22.9578 75.6897 22.672 75.8918 22.4551 76.1579C22.2382 76.4241 22.0805 76.7494 21.9819 77.1338C21.8834 77.5084 21.8341 77.9422 21.8341 78.435V81.8359H20.5772V74.1913ZM29.868 71.2784H37.1577V72.4613H31.2727V75.8178H36.7585V77.0007H31.2727V80.653H37.2021V81.8359H29.868V71.2784ZM38.7004 74.1913H39.8833V75.4038H39.9129C40.4353 74.4772 41.2634 74.0139 42.397 74.0139C42.8998 74.0139 43.3187 74.0829 43.6539 74.2209C43.989 74.3589 44.2601 74.5511 44.4671 74.7976C44.6741 75.044 44.8171 75.3397 44.8959 75.6847C44.9847 76.0199 45.029 76.3945 45.029 76.8085V81.8359H43.7722V76.6607C43.7722 76.1875 43.6342 75.8129 43.3581 75.5369C43.0821 75.2609 42.7026 75.1229 42.2196 75.1229C41.8351 75.1229 41.5 75.182 41.2141 75.3003C40.9381 75.4186 40.7064 75.5862 40.5191 75.803C40.3318 76.0199 40.1889 76.2762 40.0903 76.5719C40.0016 76.8578 39.9572 77.1733 39.9572 77.5183V81.8359H38.7004V74.1913ZM47.8335 78.0802C47.8335 78.435 47.8779 78.785 47.9666 79.13C48.0652 79.4652 48.2081 79.7658 48.3954 80.032C48.5925 80.2981 48.839 80.5101 49.1347 80.6678C49.4403 80.8255 49.7952 80.9044 50.1993 80.9044C50.6232 80.9044 50.983 80.8206 51.2788 80.653C51.5745 80.4854 51.816 80.2686 52.0033 80.0024C52.1906 79.7264 52.3237 79.4159 52.4025 79.0709C52.4913 78.7258 52.5356 78.3759 52.5356 78.021C52.5356 77.6464 52.4913 77.2866 52.4025 76.9416C52.3138 76.5867 52.1709 76.2762 51.9737 76.01C51.7864 75.7439 51.54 75.532 51.2344 75.3742C50.9288 75.2066 50.5591 75.1229 50.1254 75.1229C49.7015 75.1229 49.3417 75.2066 49.046 75.3742C48.7503 75.5418 48.5137 75.7636 48.3362 76.0396C48.1588 76.3156 48.0307 76.6311 47.9518 76.986C47.8729 77.3408 47.8335 77.7056 47.8335 78.0802ZM53.7481 81.8359H52.4913V80.8009H52.4617C52.2547 81.2248 51.9294 81.5303 51.4858 81.7176C51.0422 81.9049 50.5542 81.9986 50.0219 81.9986C49.4304 81.9986 48.9129 81.8902 48.4693 81.6733C48.0356 81.4564 47.6708 81.1656 47.3751 80.8009C47.0892 80.4361 46.8724 80.0123 46.7245 79.5292C46.5766 79.0462 46.5027 78.5336 46.5027 77.9914C46.5027 77.4493 46.5717 76.9367 46.7097 76.4536C46.8576 75.9706 47.0745 75.5517 47.3603 75.1968C47.6561 74.8321 48.0208 74.5462 48.4545 74.3392C48.8981 74.1223 49.4107 74.0139 49.9923 74.0139C50.1895 74.0139 50.4014 74.0336 50.6282 74.073C50.8549 74.1124 51.0816 74.1815 51.3083 74.28C51.5351 74.3687 51.747 74.492 51.9442 74.6497C52.1512 74.7976 52.3237 74.9849 52.4617 75.2116H52.4913V71.2784H53.7481V81.8359ZM61.542 74.1913H63.065V75.3003H61.542V80.0468C61.542 80.1946 61.5518 80.3129 61.5716 80.4016C61.6011 80.4904 61.6504 80.5594 61.7194 80.6087C61.7884 80.6579 61.8821 80.6924 62.0004 80.7122C62.1285 80.722 62.2912 80.7269 62.4883 80.7269H63.065V81.8359H62.1039C61.7786 81.8359 61.4976 81.8162 61.261 81.7768C61.0343 81.7275 60.847 81.6437 60.6992 81.5254C60.5611 81.4071 60.4576 81.2395 60.3886 81.0227C60.3196 80.8058 60.2851 80.5199 60.2851 80.1651V75.3003H58.9839V74.1913H60.2851V71.8994H61.542V74.1913ZM65.378 78.021C65.378 78.4843 65.4372 78.8983 65.5555 79.2631C65.6836 79.618 65.8561 79.9186 66.073 80.1651C66.2899 80.4016 66.5413 80.584 66.8271 80.7122C67.1229 80.8403 67.4334 80.9044 67.7587 80.9044C68.084 80.9044 68.3896 80.8403 68.6754 80.7122C68.9712 80.584 69.2275 80.4016 69.4443 80.1651C69.6612 79.9186 69.8288 79.618 69.9471 79.2631C70.0752 78.8983 70.1393 78.4843 70.1393 78.021C70.1393 77.5577 70.0752 77.1486 69.9471 76.7937C69.8288 76.429 69.6612 76.1234 69.4443 75.877C69.2275 75.6305 68.9712 75.4432 68.6754 75.3151C68.3896 75.1869 68.084 75.1229 67.7587 75.1229C67.4334 75.1229 67.1229 75.1869 66.8271 75.3151C66.5413 75.4432 66.2899 75.6305 66.073 75.877C65.8561 76.1234 65.6836 76.429 65.5555 76.7937C65.4372 77.1486 65.378 77.5577 65.378 78.021ZM64.0473 78.021C64.0473 77.4591 64.1261 76.9367 64.2838 76.4536C64.4416 75.9608 64.6782 75.5369 64.9936 75.182C65.309 74.8173 65.6984 74.5314 66.1617 74.3244C66.625 74.1174 67.1574 74.0139 67.7587 74.0139C68.3699 74.0139 68.9022 74.1174 69.3556 74.3244C69.8189 74.5314 70.2083 74.8173 70.5238 75.182C70.8392 75.5369 71.0758 75.9608 71.2335 76.4536C71.3912 76.9367 71.4701 77.4591 71.4701 78.021C71.4701 78.5829 71.3912 79.1054 71.2335 79.5884C71.0758 80.0714 70.8392 80.4953 70.5238 80.86C70.2083 81.2149 69.8189 81.4958 69.3556 81.7029C68.9022 81.9 68.3699 81.9986 67.7587 81.9986C67.1574 81.9986 66.625 81.9 66.1617 81.7029C65.6984 81.4958 65.309 81.2149 64.9936 80.86C64.6782 80.4953 64.4416 80.0714 64.2838 79.5884C64.1261 79.1054 64.0473 78.5829 64.0473 78.021ZM77.2744 71.2784H84.5641V72.4613H78.6791V75.8178H84.1649V77.0007H78.6791V80.653H84.6085V81.8359H77.2744V71.2784ZM86.1068 74.1913H87.2897V75.4038H87.3193C87.8417 74.4772 88.6698 74.0139 89.8034 74.0139C90.3061 74.0139 90.7251 74.0829 91.0603 74.2209C91.3954 74.3589 91.6665 74.5511 91.8735 74.7976C92.0805 75.044 92.2235 75.3397 92.3023 75.6847C92.391 76.0199 92.4354 76.3945 92.4354 76.8085V81.8359H91.1786V76.6607C91.1786 76.1875 91.0405 75.8129 90.7645 75.5369C90.4885 75.2609 90.109 75.1229 89.626 75.1229C89.2415 75.1229 88.9064 75.182 88.6205 75.3003C88.3445 75.4186 88.1128 75.5862 87.9255 75.803C87.7382 76.0199 87.5953 76.2762 87.4967 76.5719C87.408 76.8578 87.3636 77.1733 87.3636 77.5183V81.8359H86.1068V74.1913ZM95.2399 78.0802C95.2399 78.435 95.2842 78.785 95.373 79.13C95.4715 79.4652 95.6145 79.7658 95.8018 80.032C95.9989 80.2981 96.2454 80.5101 96.5411 80.6678C96.8467 80.8255 97.2016 80.9044 97.6057 80.9044C98.0296 80.9044 98.3894 80.8206 98.6851 80.653C98.9809 80.4854 99.2224 80.2686 99.4097 80.0024C99.597 79.7264 99.7301 79.4159 99.8089 79.0709C99.8976 78.7258 99.942 78.3759 99.942 78.021C99.942 77.6464 99.8976 77.2866 99.8089 76.9416C99.7202 76.5867 99.5773 76.2762 99.3801 76.01C99.1928 75.7439 98.9464 75.532 98.6408 75.3742C98.3352 75.2066 97.9655 75.1229 97.5318 75.1229C97.1079 75.1229 96.7481 75.2066 96.4524 75.3742C96.1566 75.5418 95.9201 75.7636 95.7426 76.0396C95.5652 76.3156 95.437 76.6311 95.3582 76.986C95.2793 77.3408 95.2399 77.7056 95.2399 78.0802ZM101.154 81.8359H99.8976V80.8009H99.8681C99.661 81.2248 99.3357 81.5303 98.8921 81.7176C98.4486 81.9049 97.9606 81.9986 97.4283 81.9986C96.8368 81.9986 96.3193 81.8902 95.8757 81.6733C95.442 81.4564 95.0772 81.1656 94.7815 80.8009C94.4956 80.4361 94.2788 80.0123 94.1309 79.5292C93.983 79.0462 93.9091 78.5336 93.9091 77.9914C93.9091 77.4493 93.9781 76.9367 94.1161 76.4536C94.264 75.9706 94.4808 75.5517 94.7667 75.1968C95.0624 74.8321 95.4272 74.5462 95.8609 74.3392C96.3045 74.1223 96.8171 74.0139 97.3987 74.0139C97.5959 74.0139 97.8078 74.0336 98.0345 74.073C98.2613 74.1124 98.488 74.1815 98.7147 74.28C98.9414 74.3687 99.1534 74.492 99.3505 74.6497C99.5575 74.7976 99.7301 74.9849 99.8681 75.2116H99.8976V71.2784H101.154V81.8359ZM7.48479 94.3687C7.40593 93.6097 7.12991 93.0626 6.65674 92.7274C6.19343 92.3824 5.59704 92.2099 4.86758 92.2099C4.57185 92.2099 4.28104 92.2395 3.99517 92.2986C3.7093 92.3578 3.453 92.4564 3.22627 92.5944C3.0094 92.7324 2.83197 92.9197 2.69396 93.1563C2.56581 93.383 2.50173 93.6689 2.50173 94.0139C2.50173 94.3392 2.59538 94.6053 2.78268 94.8123C2.97983 95.0095 3.23613 95.1721 3.55158 95.3003C3.87688 95.4284 4.24161 95.5369 4.64578 95.6256C5.04994 95.7045 5.45904 95.7932 5.87306 95.8918C6.29694 95.9903 6.71096 96.1086 7.11513 96.2466C7.51929 96.3748 7.8791 96.5522 8.19454 96.7789C8.51985 97.0057 8.77615 97.2915 8.96344 97.6366C9.16059 97.9816 9.25917 98.4153 9.25917 98.9378C9.25917 99.4997 9.13102 99.9827 8.87472 100.387C8.62828 100.781 8.30791 101.106 7.9136 101.363C7.51929 101.609 7.0757 101.787 6.58281 101.895C6.09979 102.013 5.61676 102.073 5.13373 102.073C4.54227 102.073 3.98038 101.999 3.44807 101.851C2.92561 101.703 2.4623 101.481 2.05814 101.185C1.66383 100.88 1.34838 100.495 1.1118 100.032C0.885074 99.5588 0.771711 99.0019 0.771711 98.3611H2.1025C2.1025 98.8047 2.18629 99.1892 2.35387 99.5145C2.53131 99.8299 2.75803 100.091 3.03405 100.298C3.31992 100.505 3.65015 100.658 4.02474 100.757C4.39934 100.855 4.78379 100.904 5.17809 100.904C5.49354 100.904 5.80898 100.875 6.12443 100.816C6.44973 100.757 6.74053 100.658 6.99683 100.52C7.25313 100.372 7.46015 100.175 7.61787 99.9285C7.77559 99.682 7.85445 99.3666 7.85445 98.9821C7.85445 98.6174 7.75588 98.3217 7.55872 98.0949C7.37143 97.8682 7.11513 97.6859 6.78982 97.5478C6.47438 97.4 6.11457 97.2817 5.71041 97.193C5.30624 97.1043 4.89222 97.0155 4.46834 96.9268C4.05432 96.8282 3.64522 96.7198 3.24106 96.6015C2.83689 96.4734 2.47216 96.3107 2.14686 96.1136C1.83141 95.9065 1.57511 95.6453 1.37796 95.3299C1.19066 95.0046 1.09701 94.6004 1.09701 94.1174C1.09701 93.5851 1.20545 93.1267 1.42232 92.7422C1.63919 92.3479 1.92506 92.0275 2.27994 91.7811C2.64467 91.5248 3.05376 91.3375 3.50722 91.2192C3.97053 91.0911 4.4437 91.027 4.92672 91.027C5.46889 91.027 5.97164 91.0911 6.43495 91.2192C6.89826 91.3474 7.30242 91.5494 7.64744 91.8255C8.00232 92.1015 8.27833 92.4514 8.47549 92.8753C8.6825 93.2893 8.79586 93.7871 8.81558 94.3687H7.48479ZM16.0674 97.2817C16.0477 96.986 15.9787 96.705 15.8604 96.4389C15.752 96.1727 15.5992 95.946 15.402 95.7587C15.2147 95.5615 14.988 95.4087 14.7219 95.3003C14.4656 95.182 14.1797 95.1229 13.8642 95.1229C13.5389 95.1229 13.2432 95.182 12.9771 95.3003C12.7208 95.4087 12.499 95.5615 12.3117 95.7587C12.1244 95.9558 11.9765 96.1875 11.8681 96.4536C11.7596 96.7099 11.6956 96.986 11.6758 97.2817H16.0674ZM17.2799 99.4109C17.1124 100.269 16.7427 100.914 16.1709 101.348C15.5992 101.782 14.8796 101.999 14.0121 101.999C13.4009 101.999 12.8686 101.9 12.4152 101.703C11.9716 101.506 11.597 101.23 11.2914 100.875C10.9858 100.52 10.7541 100.096 10.5964 99.6032C10.4486 99.1103 10.3648 98.573 10.3451 97.9914C10.3451 97.4098 10.4338 96.8775 10.6112 96.3945C10.7887 95.9115 11.0351 95.4925 11.3505 95.1376C11.6758 94.7828 12.0554 94.5068 12.4891 94.3096C12.9327 94.1124 13.4157 94.0139 13.9382 94.0139C14.6184 94.0139 15.1802 94.1568 15.6238 94.4427C16.0773 94.7187 16.4371 95.0736 16.7033 95.5073C16.9793 95.941 17.1666 96.4142 17.2651 96.9268C17.3736 97.4394 17.4179 97.9274 17.3982 98.3907H11.6758C11.666 98.7258 11.7054 99.0462 11.7941 99.3518C11.8829 99.6475 12.0258 99.9137 12.2229 100.15C12.4201 100.377 12.6715 100.559 12.9771 100.697C13.2826 100.835 13.6424 100.904 14.0565 100.904C14.5888 100.904 15.0225 100.781 15.3577 100.535C15.7027 100.288 15.9294 99.9137 16.0379 99.4109H17.2799ZM18.6567 94.1913H19.8396V95.803H19.8692C20.1748 95.182 20.5494 94.7236 20.993 94.4279C21.4366 94.1322 21.9984 93.9942 22.6786 94.0139V95.3447C22.1759 95.3447 21.7471 95.4137 21.3922 95.5517C21.0373 95.6897 20.7515 95.8918 20.5346 96.1579C20.3177 96.4241 20.16 96.7494 20.0614 97.1338C19.9628 97.5084 19.9136 97.9422 19.9136 98.435V101.836H18.6567V94.1913ZM27.0703 101.836H25.7248L22.8858 94.1913H24.2905L26.4345 100.564H26.4641L28.549 94.1913H29.865L27.0703 101.836ZM32.3491 92.8162H31.0923V91.2784H32.3491V92.8162ZM31.0923 94.1913H32.3491V101.836H31.0923V94.1913ZM39.4863 96.6459C39.3877 96.1628 39.1807 95.7883 38.8652 95.5221C38.5498 95.2559 38.1259 95.1229 37.5936 95.1229C37.1401 95.1229 36.7606 95.2066 36.455 95.3742C36.1495 95.5418 35.903 95.7636 35.7157 96.0396C35.5383 96.3156 35.4101 96.636 35.3313 97.0007C35.2524 97.3556 35.213 97.7253 35.213 98.1097C35.213 98.4646 35.2524 98.8096 35.3313 99.1448C35.42 99.48 35.5531 99.7806 35.7305 100.047C35.9079 100.303 36.1396 100.51 36.4255 100.668C36.7113 100.826 37.0514 100.904 37.4457 100.904C38.0668 100.904 38.5498 100.742 38.8948 100.416C39.2497 100.091 39.4666 99.6327 39.5454 99.0413H40.8319C40.6938 99.9876 40.339 100.717 39.7672 101.23C39.2053 101.742 38.4364 101.999 37.4605 101.999C36.8789 101.999 36.3614 101.905 35.9079 101.718C35.4643 101.53 35.0898 101.264 34.7842 100.919C34.4884 100.574 34.2617 100.165 34.104 99.6919C33.9561 99.2089 33.8822 98.6815 33.8822 98.1097C33.8822 97.538 33.9561 97.0057 34.104 96.5128C34.2519 96.01 34.4736 95.5763 34.7694 95.2116C35.075 94.837 35.4545 94.5462 35.9079 94.3392C36.3614 94.1223 36.8888 94.0139 37.4901 94.0139C37.9238 94.0139 38.328 94.0681 38.7026 94.1765C39.087 94.2751 39.4222 94.4328 39.7081 94.6497C40.0038 94.8666 40.2453 95.1426 40.4326 95.4777C40.6199 95.803 40.7382 96.1924 40.7875 96.6459H39.4863ZM47.5465 97.2817C47.5268 96.986 47.4578 96.705 47.3395 96.4389C47.2311 96.1727 47.0783 95.946 46.8812 95.7587C46.6939 95.5615 46.4671 95.4087 46.201 95.3003C45.9447 95.182 45.6588 95.1229 45.3434 95.1229C45.0181 95.1229 44.7223 95.182 44.4562 95.3003C44.1999 95.4087 43.9781 95.5615 43.7908 95.7587C43.6035 95.9558 43.4556 96.1875 43.3472 96.4536C43.2387 96.7099 43.1747 96.986 43.155 97.2817H47.5465ZM48.759 99.4109C48.5915 100.269 48.2218 100.914 47.6501 101.348C47.0783 101.782 46.3587 101.999 45.4912 101.999C44.88 101.999 44.3477 101.9 43.8943 101.703C43.4507 101.506 43.0761 101.23 42.7705 100.875C42.4649 100.52 42.2333 100.096 42.0755 99.6032C41.9277 99.1103 41.8439 98.573 41.8242 97.9914C41.8242 97.4098 41.9129 96.8775 42.0903 96.3945C42.2678 95.9115 42.5142 95.4925 42.8296 95.1376C43.155 94.7828 43.5345 94.5068 43.9682 94.3096C44.4118 94.1124 44.8948 94.0139 45.4173 94.0139C46.0975 94.0139 46.6594 94.1568 47.103 94.4427C47.5564 94.7187 47.9162 95.0736 48.1824 95.5073C48.4584 95.941 48.6457 96.4142 48.7443 96.9268C48.8527 97.4394 48.8971 97.9274 48.8773 98.3907H43.155C43.1451 98.7258 43.1845 99.0462 43.2732 99.3518C43.362 99.6475 43.5049 99.9137 43.7021 100.15C43.8992 100.377 44.1506 100.559 44.4562 100.697C44.7618 100.835 45.1216 100.904 45.5356 100.904C46.0679 100.904 46.5016 100.781 46.8368 100.535C47.1818 100.288 47.4085 99.9137 47.517 99.4109H48.759ZM50.9491 99.4257C50.9589 99.7018 51.023 99.9383 51.1413 100.135C51.2596 100.323 51.4124 100.476 51.5997 100.594C51.7968 100.702 52.0137 100.781 52.2503 100.83C52.4967 100.88 52.7481 100.904 53.0044 100.904C53.2015 100.904 53.4086 100.89 53.6254 100.86C53.8423 100.83 54.0394 100.776 54.2169 100.697C54.4042 100.619 54.557 100.505 54.6753 100.357C54.7936 100.2 54.8527 100.002 54.8527 99.7658C54.8527 99.4405 54.7295 99.1941 54.483 99.0265C54.2366 98.8589 53.9261 98.7258 53.5515 98.6273C53.1868 98.5188 52.7875 98.4252 52.3538 98.3463C51.92 98.2576 51.5159 98.1393 51.1413 97.9914C50.7766 97.8337 50.471 97.6169 50.2245 97.3408C49.9781 97.0648 49.8549 96.6804 49.8549 96.1875C49.8549 95.803 49.9386 95.4728 50.1062 95.1968C50.2837 94.9208 50.5055 94.699 50.7716 94.5314C51.0476 94.354 51.3532 94.2258 51.6884 94.1469C52.0334 94.0582 52.3735 94.0139 52.7087 94.0139C53.1424 94.0139 53.5416 94.0533 53.9064 94.1322C54.2711 94.2012 54.5915 94.3293 54.8675 94.5166C55.1534 94.694 55.3801 94.9405 55.5477 95.2559C55.7152 95.5615 55.8138 95.946 55.8434 96.4093H54.5865C54.5668 96.1628 54.5028 95.9608 54.3943 95.803C54.2859 95.6355 54.1479 95.5024 53.9803 95.4038C53.8127 95.3052 53.6254 95.2362 53.4184 95.1968C53.2213 95.1475 53.0192 95.1229 52.8122 95.1229C52.6249 95.1229 52.4326 95.1376 52.2355 95.1672C52.0482 95.1968 51.8757 95.251 51.718 95.3299C51.5602 95.3989 51.4321 95.4975 51.3335 95.6256C51.2349 95.7439 51.1856 95.9016 51.1856 96.0988C51.1856 96.3156 51.2596 96.498 51.4074 96.6459C51.5652 96.7839 51.7623 96.9022 51.9989 97.0007C52.2355 97.0895 52.5016 97.1683 52.7974 97.2373C53.0931 97.2965 53.3888 97.3606 53.6846 97.4296C54 97.4986 54.3056 97.5823 54.6013 97.6809C54.9069 97.7795 55.1731 97.9126 55.3998 98.0802C55.6364 98.2379 55.8237 98.44 55.9617 98.6864C56.1096 98.9329 56.1835 99.2384 56.1835 99.6032C56.1835 100.066 56.0849 100.451 55.8878 100.757C55.7005 101.062 55.4491 101.309 55.1336 101.496C54.8281 101.683 54.4781 101.811 54.0838 101.88C53.6994 101.959 53.3149 101.999 52.9305 101.999C52.5066 101.999 52.1024 101.954 51.718 101.866C51.3335 101.777 50.9934 101.634 50.6977 101.437C50.402 101.23 50.1654 100.964 49.9879 100.638C49.8105 100.303 49.7119 99.8989 49.6922 99.4257H50.9491Z" fill="white"/>
</svg>
