<svg width="109" height="107" viewBox="0 0 109 107" fill="none" xmlns="http://www.w3.org/2000/svg">
<circle cx="24.7449" cy="25.0303" r="24.1707" fill="#D9D9D9" fill-opacity="0.08"/>
<path d="M23.8815 13.5813H15.956C13.4245 13.5813 12.1523 14.8662 12.1523 17.4232V37.752H19.0219V32.9815C19.0219 32.4599 19.4544 32.0273 19.976 32.0273C20.4976 32.0273 20.9301 32.4472 20.9301 32.9815V37.752H27.6725V17.4232C27.6725 14.8662 26.413 13.5813 23.8815 13.5813ZM23.1564 25.9847H16.8593C16.3377 25.9847 15.9052 25.5521 15.9052 25.0306C15.9052 24.509 16.3377 24.0765 16.8593 24.0765H23.1564C23.6779 24.0765 24.1105 24.509 24.1105 25.0306C24.1105 25.5521 23.6779 25.9847 23.1564 25.9847ZM23.1564 21.2141H16.8593C16.3377 21.2141 15.9052 20.7816 15.9052 20.26C15.9052 19.7385 16.3377 19.3059 16.8593 19.3059H23.1564C23.6779 19.3059 24.1105 19.7385 24.1105 20.26C24.1105 20.7816 23.6779 21.2141 23.1564 21.2141Z" fill="white"/>
<path d="M38.74 36.7981H35.8523V32.9817C37.0608 32.5873 37.9386 31.4551 37.9386 30.1193V27.5751C37.9386 25.9086 36.5774 24.5474 34.9109 24.5474C33.2444 24.5474 31.8832 25.9086 31.8832 27.5751V30.1193C31.8832 31.4424 32.7483 32.5619 33.9313 32.9689V36.7981H10.7529C10.2314 36.7981 9.79883 37.2306 9.79883 37.7522C9.79883 38.2738 10.2314 38.7063 10.7529 38.7063H34.8346C34.86 38.7063 34.8727 38.719 34.8982 38.719C34.9236 38.719 34.9363 38.7063 34.9618 38.7063H38.74C39.2616 38.7063 39.6941 38.2738 39.6941 37.7522C39.6941 37.2306 39.2616 36.7981 38.74 36.7981Z" fill="white"/>
<path d="M8.10056 72.6092C7.56824 73.1316 7.07043 73.7526 6.60712 74.4723C6.14381 75.1919 5.72978 75.9608 5.36505 76.7789C5.01017 77.5971 4.71937 78.44 4.49265 79.3074C4.26592 80.1749 4.12791 81.0178 4.07862 81.8359H2.6739C2.73305 80.9487 2.87599 80.0862 3.10271 79.2483C3.3393 78.4005 3.63996 77.5922 4.00469 76.8233C4.36943 76.0446 4.78838 75.3102 5.26154 74.6201C5.74457 73.9301 6.2621 73.2943 6.81413 72.7127H1.31354V71.5297H8.10056V72.6092ZM15.7402 72.6387H11.5113L10.9494 75.6552L10.979 75.6847C11.2057 75.4284 11.4965 75.2412 11.8514 75.1229C12.2161 74.9947 12.5759 74.9306 12.9308 74.9306C13.3941 74.9306 13.8328 75.0046 14.2468 75.1524C14.6608 75.3003 15.0206 75.527 15.3262 75.8326C15.6318 76.1283 15.8733 76.5029 16.0507 76.9564C16.2282 77.4 16.3169 77.9224 16.3169 78.5238C16.3169 78.9674 16.238 79.4011 16.0803 79.825C15.9324 80.239 15.7057 80.6087 15.4001 80.934C15.0945 81.2593 14.7101 81.5205 14.2468 81.7176C13.7933 81.9049 13.261 81.9986 12.6498 81.9986C12.1964 81.9986 11.7676 81.9345 11.3634 81.8064C10.9691 81.6684 10.6192 81.4761 10.3136 81.2297C10.008 80.9734 9.76647 80.6579 9.58903 80.2834C9.41159 79.9088 9.31794 79.4849 9.30808 79.0117H10.5649C10.5847 79.2779 10.6487 79.5292 10.7572 79.7658C10.8755 79.9926 11.0282 80.1946 11.2155 80.3721C11.4127 80.5397 11.6394 80.6727 11.8957 80.7713C12.1619 80.86 12.4527 80.9044 12.7681 80.9044C13.0639 80.9044 13.3448 80.8551 13.611 80.7565C13.887 80.6481 14.1236 80.4904 14.3207 80.2834C14.5277 80.0763 14.6904 79.82 14.8087 79.5145C14.927 79.199 14.9861 78.8343 14.9861 78.4203C14.9861 78.0752 14.927 77.7598 14.8087 77.4739C14.7002 77.1782 14.5425 76.9268 14.3355 76.7198C14.1285 76.5029 13.8771 76.3354 13.5814 76.2171C13.2955 76.0988 12.9751 76.0396 12.6203 76.0396C12.2062 76.0396 11.8366 76.1333 11.5113 76.3206C11.1958 76.498 10.9149 76.7346 10.6684 77.0303L9.58903 76.9712L10.5649 71.5297H15.7402V72.6387ZM18.9587 76.6754C18.9587 77.0697 18.9686 77.5133 18.9883 78.0062C19.0179 78.4893 19.0967 78.9476 19.2249 79.3814C19.3629 79.8053 19.5797 80.1651 19.8755 80.4608C20.1712 80.7565 20.5852 80.9044 21.1175 80.9044C21.6499 80.9044 22.0639 80.7565 22.3596 80.4608C22.6553 80.1651 22.8673 79.8053 22.9954 79.3814C23.1334 78.9476 23.2123 78.4893 23.232 78.0062C23.2616 77.5133 23.2764 77.0697 23.2764 76.6754C23.2764 76.4191 23.2714 76.1382 23.2616 75.8326C23.2616 75.5172 23.2369 75.2066 23.1877 74.9011C23.1482 74.5856 23.0842 74.28 22.9954 73.9843C22.9166 73.6886 22.7933 73.4323 22.6258 73.2154C22.468 72.9887 22.266 72.8063 22.0195 72.6683C21.7731 72.5303 21.4724 72.4613 21.1175 72.4613C20.7627 72.4613 20.462 72.5303 20.2156 72.6683C19.9691 72.8063 19.7621 72.9887 19.5945 73.2154C19.4368 73.4323 19.3136 73.6886 19.2249 73.9843C19.146 74.28 19.0819 74.5856 19.0326 74.9011C18.9932 75.2066 18.9686 75.5172 18.9587 75.8326C18.9587 76.1382 18.9587 76.4191 18.9587 76.6754ZM17.6279 76.6902C17.6279 76.3058 17.6378 75.9065 17.6575 75.4925C17.6772 75.0785 17.7265 74.6743 17.8054 74.28C17.8842 73.8857 17.9976 73.5111 18.1455 73.1563C18.2933 72.8014 18.4954 72.4909 18.7517 72.2247C19.008 71.9585 19.3284 71.7466 19.7128 71.5889C20.1071 71.4312 20.5754 71.3523 21.1175 71.3523C21.6597 71.3523 22.123 71.4312 22.5075 71.5889C22.9018 71.7466 23.2271 71.9585 23.4834 72.2247C23.7397 72.4909 23.9418 72.8014 24.0896 73.1563C24.2375 73.5111 24.3509 73.8857 24.4297 74.28C24.5086 74.6743 24.5579 75.0785 24.5776 75.4925C24.5973 75.9065 24.6072 76.3058 24.6072 76.6902C24.6072 77.0747 24.5973 77.4739 24.5776 77.8879C24.5579 78.302 24.5086 78.7061 24.4297 79.1004C24.3509 79.4947 24.2375 79.8693 24.0896 80.2242C23.9418 80.5692 23.7397 80.8748 23.4834 81.141C23.2271 81.4071 22.9067 81.6191 22.5223 81.7768C22.1378 81.9247 21.6696 81.9986 21.1175 81.9986C20.5754 81.9986 20.1071 81.9247 19.7128 81.7768C19.3284 81.6191 19.008 81.4071 18.7517 81.141C18.4954 80.8748 18.2933 80.5692 18.1455 80.2242C17.9976 79.8693 17.8842 79.4947 17.8054 79.1004C17.7265 78.7061 17.6772 78.302 17.6575 77.8879C17.6378 77.4739 17.6279 77.0747 17.6279 76.6902ZM30.1619 77.5922H33.3854V78.5977H30.1619V81.8359H29.1564V78.5977H25.933V77.5922H29.1564V74.354H30.1619V77.5922ZM40.7628 76.3354H43.5131C44.3116 76.3452 44.8932 76.1826 45.2579 75.8474C45.6325 75.5122 45.8198 75.0292 45.8198 74.3983C45.8198 73.7674 45.6325 73.2893 45.2579 72.964C44.8932 72.6289 44.3116 72.4613 43.5131 72.4613H40.7628V76.3354ZM39.3581 71.2784H43.9863C45.0509 71.2784 45.8543 71.5544 46.3965 72.1064C46.9485 72.6486 47.2245 73.4126 47.2245 74.3983C47.2245 75.3841 46.9485 76.153 46.3965 76.705C45.8543 77.257 45.0509 77.5281 43.9863 77.5183H40.7628V81.8359H39.3581V71.2784ZM55.5114 81.8064C55.2946 81.9345 54.9939 81.9986 54.6095 81.9986C54.2842 81.9986 54.0229 81.9099 53.8258 81.7324C53.6385 81.5451 53.5448 81.2445 53.5448 80.8305C53.1998 81.2445 52.7957 81.5451 52.3323 81.7324C51.8789 81.9099 51.386 81.9986 50.8537 81.9986C50.5087 81.9986 50.1784 81.9592 49.863 81.8803C49.5574 81.8014 49.2912 81.6782 49.0645 81.5106C48.8378 81.3431 48.6554 81.1262 48.5174 80.86C48.3893 80.584 48.3252 80.2538 48.3252 79.8693C48.3252 79.4356 48.3991 79.0807 48.547 78.8047C48.6949 78.5287 48.8871 78.3069 49.1237 78.1393C49.3701 77.9619 49.6461 77.8288 49.9517 77.7401C50.2672 77.6514 50.5875 77.5774 50.9128 77.5183C51.2579 77.4493 51.5832 77.4 51.8887 77.3704C52.2042 77.331 52.4802 77.2817 52.7168 77.2225C52.9534 77.1535 53.1407 77.0599 53.2787 76.9416C53.4167 76.8135 53.4857 76.6311 53.4857 76.3945C53.4857 76.1185 53.4315 75.8967 53.323 75.7291C53.2245 75.5615 53.0914 75.4334 52.9238 75.3447C52.7661 75.2559 52.5837 75.1968 52.3767 75.1672C52.1795 75.1376 51.9824 75.1229 51.7852 75.1229C51.2529 75.1229 50.8093 75.2264 50.4545 75.4334C50.0996 75.6305 49.9074 76.01 49.8778 76.5719H48.6209C48.6406 76.0988 48.7392 75.6995 48.9167 75.3742C49.0941 75.0489 49.3307 74.7877 49.6264 74.5905C49.9221 74.3835 50.2573 74.2357 50.6319 74.1469C51.0163 74.0582 51.4254 74.0139 51.8592 74.0139C52.2042 74.0139 52.5443 74.0385 52.8794 74.0878C53.2245 74.1371 53.535 74.2406 53.811 74.3983C54.087 74.5462 54.3088 74.7581 54.4764 75.0341C54.644 75.3102 54.7278 75.67 54.7278 76.1136V80.0468C54.7278 80.3425 54.7425 80.5594 54.7721 80.6974C54.8115 80.8354 54.9298 80.9044 55.127 80.9044C55.2354 80.9044 55.3636 80.8797 55.5114 80.8305V81.8064ZM53.4709 77.8879C53.3132 78.0062 53.1062 78.0949 52.8499 78.1541C52.5936 78.2034 52.3225 78.2477 52.0366 78.2872C51.7606 78.3167 51.4797 78.3562 51.1938 78.4055C50.9079 78.4449 50.6516 78.5139 50.4249 78.6125C50.1982 78.7111 50.0109 78.854 49.863 79.0413C49.725 79.2187 49.656 79.4652 49.656 79.7806C49.656 79.9876 49.6954 80.1651 49.7743 80.3129C49.863 80.4509 49.9714 80.5643 50.0996 80.653C50.2376 80.7417 50.3953 80.8058 50.5727 80.8452C50.7502 80.8847 50.9375 80.9044 51.1346 80.9044C51.5487 80.9044 51.9035 80.8502 52.1993 80.7417C52.495 80.6234 52.7365 80.4805 52.9238 80.3129C53.1111 80.1355 53.2491 79.9482 53.3378 79.751C53.4265 79.544 53.4709 79.3518 53.4709 79.1744V77.8879ZM56.6368 74.1913H57.8198V75.803H57.8493C58.1549 75.182 58.5295 74.7236 58.9731 74.4279C59.4167 74.1322 59.9786 73.9942 60.6588 74.0139V75.3447C60.156 75.3447 59.7272 75.4137 59.3723 75.5517C59.0175 75.6897 58.7316 75.8918 58.5147 76.1579C58.2979 76.4241 58.1401 76.7494 58.0416 77.1338C57.943 77.5084 57.8937 77.9422 57.8937 78.435V81.8359H56.6368V74.1913ZM63.35 74.1913H64.873V75.3003H63.35V80.0468C63.35 80.1946 63.3599 80.3129 63.3796 80.4016C63.4092 80.4904 63.4585 80.5594 63.5275 80.6087C63.5965 80.6579 63.6901 80.6924 63.8084 80.7122C63.9366 80.722 64.0992 80.7269 64.2964 80.7269H64.873V81.8359H63.9119C63.5866 81.8359 63.3057 81.8162 63.0691 81.7768C62.8424 81.7275 62.6551 81.6437 62.5072 81.5254C62.3692 81.4071 62.2657 81.2395 62.1967 81.0227C62.1277 80.8058 62.0932 80.5199 62.0932 80.1651V75.3003H60.792V74.1913H62.0932V71.8994H63.35V74.1913ZM66.2693 74.1913H67.4522V75.4038H67.4818C68.0043 74.4772 68.8323 74.0139 69.966 74.0139C70.4687 74.0139 70.8876 74.0829 71.2228 74.2209C71.558 74.3589 71.8291 74.5511 72.0361 74.7976C72.2431 75.044 72.386 75.3397 72.4649 75.6847C72.5536 76.0199 72.598 76.3945 72.598 76.8085V81.8359H71.3411V76.6607C71.3411 76.1875 71.2031 75.8129 70.9271 75.5369C70.6511 75.2609 70.2715 75.1229 69.7885 75.1229C69.4041 75.1229 69.0689 75.182 68.783 75.3003C68.507 75.4186 68.2754 75.5862 68.0881 75.803C67.9008 76.0199 67.7578 76.2762 67.6593 76.5719C67.5705 76.8578 67.5262 77.1733 67.5262 77.5183V81.8359H66.2693V74.1913ZM79.794 77.2817C79.7743 76.986 79.7053 76.705 79.587 76.4389C79.4786 76.1727 79.3258 75.946 79.1286 75.7587C78.9413 75.5615 78.7146 75.4087 78.4485 75.3003C78.1922 75.182 77.9063 75.1229 77.5908 75.1229C77.2655 75.1229 76.9698 75.182 76.7036 75.3003C76.4473 75.4087 76.2255 75.5615 76.0383 75.7587C75.851 75.9558 75.7031 76.1875 75.5947 76.4536C75.4862 76.7099 75.4221 76.986 75.4024 77.2817H79.794ZM81.0065 79.4109C80.8389 80.2686 80.4693 80.9142 79.8975 81.348C79.3258 81.7817 78.6062 81.9986 77.7387 81.9986C77.1275 81.9986 76.5952 81.9 76.1418 81.7029C75.6982 81.5057 75.3236 81.2297 75.018 80.8748C74.7124 80.5199 74.4807 80.0961 74.323 79.6032C74.1751 79.1103 74.0914 78.573 74.0716 77.9914C74.0716 77.4098 74.1604 76.8775 74.3378 76.3945C74.5152 75.9115 74.7617 75.4925 75.0771 75.1376C75.4024 74.7828 75.782 74.5068 76.2157 74.3096C76.6593 74.1124 77.1423 74.0139 77.6648 74.0139C78.3449 74.0139 78.9068 74.1568 79.3504 74.4427C79.8039 74.7187 80.1637 75.0736 80.4298 75.5073C80.7059 75.941 80.8932 76.4142 80.9917 76.9268C81.1002 77.4394 81.1445 77.9274 81.1248 78.3907H75.4024C75.3926 78.7258 75.432 79.0462 75.5207 79.3518C75.6094 79.6475 75.7524 79.9137 75.9495 80.1503C76.1467 80.377 76.3981 80.5594 76.7036 80.6974C77.0092 80.8354 77.369 80.9044 77.7831 80.9044C78.3154 80.9044 78.7491 80.7812 79.0843 80.5347C79.4293 80.2883 79.656 79.9137 79.7645 79.4109H81.0065ZM82.3833 74.1913H83.5662V75.803H83.5958C83.9014 75.182 84.276 74.7236 84.7196 74.4279C85.1632 74.1322 85.725 73.9942 86.4052 74.0139V75.3447C85.9025 75.3447 85.4737 75.4137 85.1188 75.5517C84.7639 75.6897 84.478 75.8918 84.2612 76.1579C84.0443 76.4241 83.8866 76.7494 83.788 77.1338C83.6894 77.5084 83.6401 77.9422 83.6401 78.435V81.8359H82.3833V74.1913ZM1.78671 91.2784H3.19143V101.836H1.78671V91.2784ZM5.34714 94.1913H6.53007V95.4038H6.55964C7.0821 94.4772 7.91014 94.0139 9.04377 94.0139C9.54652 94.0139 9.96547 94.0829 10.3006 94.2209C10.6358 94.3589 10.9069 94.5511 11.1139 94.7976C11.3209 95.044 11.4638 95.3397 11.5427 95.6847C11.6314 96.0199 11.6758 96.3945 11.6758 96.8085V101.836H10.4189V96.6607C10.4189 96.1875 10.2809 95.8129 10.0049 95.5369C9.72888 95.2609 9.34936 95.1229 8.86634 95.1229C8.48189 95.1229 8.14673 95.182 7.86085 95.3003C7.58484 95.4186 7.35318 95.5862 7.16589 95.803C6.97859 96.0199 6.83565 96.2762 6.73708 96.5719C6.64836 96.8578 6.604 97.1733 6.604 97.5183V101.836H5.34714V94.1913ZM14.3324 99.4257C14.3422 99.7018 14.4063 99.9383 14.5246 100.135C14.6429 100.323 14.7957 100.476 14.983 100.594C15.1801 100.702 15.397 100.781 15.6336 100.83C15.88 100.88 16.1314 100.904 16.3877 100.904C16.5849 100.904 16.7919 100.89 17.0087 100.86C17.2256 100.83 17.4228 100.776 17.6002 100.697C17.7875 100.619 17.9403 100.505 18.0586 100.357C18.1769 100.2 18.236 100.002 18.236 99.7658C18.236 99.4405 18.1128 99.1941 17.8664 99.0265C17.6199 98.8589 17.3094 98.7258 16.9348 98.6273C16.5701 98.5188 16.1708 98.4252 15.7371 98.3463C15.3034 98.2576 14.8992 98.1393 14.5246 97.9914C14.1599 97.8337 13.8543 97.6169 13.6078 97.3408C13.3614 97.0648 13.2382 96.6804 13.2382 96.1875C13.2382 95.803 13.322 95.4728 13.4895 95.1968C13.667 94.9208 13.8888 94.699 14.1549 94.5314C14.431 94.354 14.7365 94.2258 15.0717 94.1469C15.4167 94.0582 15.7568 94.0139 16.092 94.0139C16.5257 94.0139 16.9249 94.0533 17.2897 94.1322C17.6544 94.2012 17.9748 94.3293 18.2508 94.5166C18.5367 94.694 18.7634 94.9405 18.931 95.2559C19.0986 95.5615 19.1971 95.946 19.2267 96.4093H17.9699C17.9501 96.1628 17.8861 95.9608 17.7776 95.803C17.6692 95.6355 17.5312 95.5024 17.3636 95.4038C17.196 95.3052 17.0087 95.2362 16.8017 95.1968C16.6046 95.1475 16.4025 95.1229 16.1955 95.1229C16.0082 95.1229 15.816 95.1376 15.6188 95.1672C15.4315 95.1968 15.259 95.251 15.1013 95.3299C14.9436 95.3989 14.8154 95.4975 14.7168 95.6256C14.6183 95.7439 14.569 95.9016 14.569 96.0988C14.569 96.3156 14.6429 96.498 14.7908 96.6459C14.9485 96.7839 15.1456 96.9022 15.3822 97.0007C15.6188 97.0895 15.885 97.1683 16.1807 97.2373C16.4764 97.2965 16.7722 97.3606 17.0679 97.4296C17.3833 97.4986 17.6889 97.5823 17.9846 97.6809C18.2902 97.7795 18.5564 97.9126 18.7831 98.0802C19.0197 98.2379 19.207 98.44 19.345 98.6864C19.4929 98.9329 19.5668 99.2384 19.5668 99.6032C19.5668 100.066 19.4682 100.451 19.2711 100.757C19.0838 101.062 18.8324 101.309 18.517 101.496C18.2114 101.683 17.8614 101.811 17.4671 101.88C17.0827 101.959 16.6982 101.999 16.3138 101.999C15.8899 101.999 15.4857 101.954 15.1013 101.866C14.7168 101.777 14.3767 101.634 14.081 101.437C13.7853 101.23 13.5487 100.964 13.3713 100.638C13.1938 100.303 13.0952 99.8989 13.0755 99.4257H14.3324ZM22.7015 94.1913H24.2246V95.3003H22.7015V100.047C22.7015 100.195 22.7114 100.313 22.7311 100.402C22.7607 100.49 22.81 100.559 22.879 100.609C22.948 100.658 23.0416 100.692 23.1599 100.712C23.2881 100.722 23.4507 100.727 23.6479 100.727H24.2246V101.836H23.2634C22.9381 101.836 22.6572 101.816 22.4206 101.777C22.1939 101.728 22.0066 101.644 21.8587 101.525C21.7207 101.407 21.6172 101.24 21.5482 101.023C21.4792 100.806 21.4447 100.52 21.4447 100.165V95.3003H20.1435V94.1913H21.4447V91.8994H22.7015V94.1913ZM26.9516 92.8162H25.6948V91.2784H26.9516V92.8162ZM25.6948 94.1913H26.9516V101.836H25.6948V94.1913ZM30.6435 94.1913H32.1665V95.3003H30.6435V100.047C30.6435 100.195 30.6534 100.313 30.6731 100.402C30.7027 100.49 30.752 100.559 30.821 100.609C30.89 100.658 30.9836 100.692 31.1019 100.712C31.2301 100.722 31.3927 100.727 31.5899 100.727H32.1665V101.836H31.2054C30.8801 101.836 30.5992 101.816 30.3626 101.777C30.1359 101.728 29.9486 101.644 29.8007 101.525C29.6627 101.407 29.5592 101.24 29.4902 101.023C29.4212 100.806 29.3867 100.52 29.3867 100.165V95.3003H28.0855V94.1913H29.3867V91.8994H30.6435V94.1913ZM39.8915 101.836H38.7085V100.623H38.679C38.4128 101.097 38.0727 101.447 37.6587 101.673C37.2447 101.89 36.7567 101.999 36.1948 101.999C35.6921 101.999 35.2731 101.935 34.938 101.806C34.6028 101.668 34.3317 101.476 34.1247 101.23C33.9177 100.983 33.7698 100.692 33.6811 100.357C33.6023 100.012 33.5628 99.6327 33.5628 99.2187V94.1913H34.8197V99.3666C34.8197 99.8398 34.9577 100.214 35.2337 100.49C35.5097 100.766 35.8892 100.904 36.3723 100.904C36.7567 100.904 37.0869 100.845 37.363 100.727C37.6488 100.609 37.8854 100.441 38.0727 100.224C38.26 100.007 38.398 99.756 38.4867 99.4701C38.5853 99.1744 38.6346 98.854 38.6346 98.509V94.1913H39.8915V101.836ZM43.524 94.1913H45.047V95.3003H43.524V100.047C43.524 100.195 43.5338 100.313 43.5535 100.402C43.5831 100.49 43.6324 100.559 43.7014 100.609C43.7704 100.658 43.8641 100.692 43.9823 100.712C44.1105 100.722 44.2732 100.727 44.4703 100.727H45.047V101.836H44.0859C43.7606 101.836 43.4796 101.816 43.243 101.777C43.0163 101.728 42.829 101.644 42.6811 101.525C42.5431 101.407 42.4396 101.24 42.3706 101.023C42.3016 100.806 42.2671 100.52 42.2671 100.165V95.3003H40.9659V94.1913H42.2671V91.8994H43.524V94.1913ZM47.7741 92.8162H46.5172V91.2784H47.7741V92.8162ZM46.5172 94.1913H47.7741V101.836H46.5172V94.1913ZM50.6379 98.021C50.6379 98.4843 50.697 98.8983 50.8153 99.2631C50.9435 99.618 51.116 99.9186 51.3329 100.165C51.5497 100.402 51.8011 100.584 52.087 100.712C52.3827 100.84 52.6932 100.904 53.0185 100.904C53.3438 100.904 53.6494 100.84 53.9353 100.712C54.231 100.584 54.4873 100.402 54.7042 100.165C54.9211 99.9186 55.0886 99.618 55.2069 99.2631C55.3351 98.8983 55.3992 98.4843 55.3992 98.021C55.3992 97.5577 55.3351 97.1486 55.2069 96.7937C55.0886 96.429 54.9211 96.1234 54.7042 95.877C54.4873 95.6305 54.231 95.4432 53.9353 95.3151C53.6494 95.1869 53.3438 95.1229 53.0185 95.1229C52.6932 95.1229 52.3827 95.1869 52.087 95.3151C51.8011 95.4432 51.5497 95.6305 51.3329 95.877C51.116 96.1234 50.9435 96.429 50.8153 96.7937C50.697 97.1486 50.6379 97.5577 50.6379 98.021ZM49.3071 98.021C49.3071 97.4591 49.386 96.9367 49.5437 96.4536C49.7014 95.9608 49.938 95.5369 50.2535 95.182C50.5689 94.8173 50.9583 94.5314 51.4216 94.3244C51.8849 94.1174 52.4172 94.0139 53.0185 94.0139C53.6297 94.0139 54.162 94.1174 54.6155 94.3244C55.0788 94.5314 55.4682 94.8173 55.7836 95.182C56.0991 95.5369 56.3356 95.9608 56.4934 96.4536C56.6511 96.9367 56.7299 97.4591 56.7299 98.021C56.7299 98.5829 56.6511 99.1054 56.4934 99.5884C56.3356 100.071 56.0991 100.495 55.7836 100.86C55.4682 101.215 55.0788 101.496 54.6155 101.703C54.162 101.9 53.6297 101.999 53.0185 101.999C52.4172 101.999 51.8849 101.9 51.4216 101.703C50.9583 101.496 50.5689 101.215 50.2535 100.86C49.938 100.495 49.7014 100.071 49.5437 99.5884C49.386 99.1054 49.3071 98.5829 49.3071 98.021ZM58.2118 94.1913H59.3948V95.4038H59.4243C59.9468 94.4772 60.7748 94.0139 61.9085 94.0139C62.4112 94.0139 62.8302 94.0829 63.1653 94.2209C63.5005 94.3589 63.7716 94.5511 63.9786 94.7976C64.1856 95.044 64.3285 95.3397 64.4074 95.6847C64.4961 96.0199 64.5405 96.3945 64.5405 96.8085V101.836H63.2836V96.6607C63.2836 96.1875 63.1456 95.8129 62.8696 95.5369C62.5936 95.2609 62.214 95.1229 61.731 95.1229C61.3466 95.1229 61.0114 95.182 60.7255 95.3003C60.4495 95.4186 60.2179 95.5862 60.0306 95.803C59.8433 96.0199 59.7003 96.2762 59.6018 96.5719C59.513 96.8578 59.4687 97.1733 59.4687 97.5183V101.836H58.2118V94.1913ZM67.1971 99.4257C67.2069 99.7018 67.271 99.9383 67.3893 100.135C67.5076 100.323 67.6604 100.476 67.8477 100.594C68.0448 100.702 68.2617 100.781 68.4983 100.83C68.7447 100.88 68.9961 100.904 69.2524 100.904C69.4495 100.904 69.6566 100.89 69.8734 100.86C70.0903 100.83 70.2874 100.776 70.4649 100.697C70.6522 100.619 70.805 100.505 70.9233 100.357C71.0416 100.2 71.1007 100.002 71.1007 99.7658C71.1007 99.4405 70.9775 99.1941 70.731 99.0265C70.4846 98.8589 70.1741 98.7258 69.7995 98.6273C69.4348 98.5188 69.0355 98.4252 68.6018 98.3463C68.168 98.2576 67.7639 98.1393 67.3893 97.9914C67.0246 97.8337 66.719 97.6169 66.4725 97.3408C66.2261 97.0648 66.1029 96.6804 66.1029 96.1875C66.1029 95.803 66.1867 95.4728 66.3542 95.1968C66.5317 94.9208 66.7535 94.699 67.0196 94.5314C67.2956 94.354 67.6012 94.2258 67.9364 94.1469C68.2814 94.0582 68.6215 94.0139 68.9567 94.0139C69.3904 94.0139 69.7896 94.0533 70.1544 94.1322C70.5191 94.2012 70.8395 94.3293 71.1155 94.5166C71.4014 94.694 71.6281 94.9405 71.7957 95.2559C71.9633 95.5615 72.0618 95.946 72.0914 96.4093H70.8345C70.8148 96.1628 70.7508 95.9608 70.6423 95.803C70.5339 95.6355 70.3959 95.5024 70.2283 95.4038C70.0607 95.3052 69.8734 95.2362 69.6664 95.1968C69.4693 95.1475 69.2672 95.1229 69.0602 95.1229C68.8729 95.1229 68.6806 95.1376 68.4835 95.1672C68.2962 95.1968 68.1237 95.251 67.966 95.3299C67.8082 95.3989 67.6801 95.4975 67.5815 95.6256C67.4829 95.7439 67.4336 95.9016 67.4336 96.0988C67.4336 96.3156 67.5076 96.498 67.6554 96.6459C67.8132 96.7839 68.0103 96.9022 68.2469 97.0007C68.4835 97.0895 68.7496 97.1683 69.0454 97.2373C69.3411 97.2965 69.6368 97.3606 69.9326 97.4296C70.248 97.4986 70.5536 97.5823 70.8493 97.6809C71.1549 97.7795 71.4211 97.9126 71.6478 98.0802C71.8844 98.2379 72.0717 98.44 72.2097 98.6864C72.3576 98.9329 72.4315 99.2384 72.4315 99.6032C72.4315 100.066 72.3329 100.451 72.1358 100.757C71.9485 101.062 71.6971 101.309 71.3816 101.496C71.0761 101.683 70.7261 101.811 70.3318 101.88C69.9474 101.959 69.5629 101.999 69.1785 101.999C68.7546 101.999 68.3504 101.954 67.966 101.866C67.5815 101.777 67.2414 101.634 66.9457 101.437C66.65 101.23 66.4134 100.964 66.2359 100.638C66.0585 100.303 65.9599 99.8989 65.9402 99.4257H67.1971Z" fill="white"/>
</svg>
