<svg width="110" height="107" viewBox="0 0 110 107" fill="none" xmlns="http://www.w3.org/2000/svg">
<circle cx="25.0926" cy="25.0303" r="24.1707" fill="#D9D9D9" fill-opacity="0.08"/>
<path d="M35.336 23.2879L29.3951 20.7309L28.0721 20.1712C27.8685 20.0694 27.6904 19.8022 27.6904 19.5733V15.6805C27.6904 14.4593 26.7872 13.009 25.6932 12.4493C25.3115 12.2584 24.8536 12.2584 24.4719 12.4493C23.3906 13.009 22.4874 14.472 22.4874 15.6932V19.586C22.4874 19.815 22.3093 20.0821 22.1057 20.1839L14.8545 23.3006C14.0531 23.6314 13.4043 24.6364 13.4043 25.5014V27.1807C13.4043 28.262 14.2185 28.7963 15.2235 28.3638L21.5969 25.6159C22.093 25.3997 22.5001 25.6668 22.5001 26.2138V27.6259V29.9158C22.5001 30.2084 22.3347 30.6282 22.1312 30.8317L19.1798 33.7958C18.8745 34.1011 18.7346 34.699 18.8745 35.1315L19.447 36.8617C19.676 37.6122 20.5283 37.9684 21.228 37.6122L24.2557 35.0679C24.7136 34.6736 25.4642 34.6736 25.9222 35.0679L28.9499 37.6122C29.6495 37.9557 30.5019 37.6122 30.7563 36.8617L31.3288 35.1315C31.4687 34.7117 31.3288 34.1011 31.0235 33.7958L28.0721 30.8317C27.8558 30.6282 27.6904 30.2084 27.6904 29.9158V26.2138C27.6904 25.6668 28.0848 25.4124 28.5937 25.6159L34.9671 28.3638C35.9721 28.7963 36.7863 28.262 36.7863 27.1807V25.5014C36.7863 24.6364 36.1375 23.6314 35.336 23.2879Z" fill="white"/>
<path d="M2.07522 71.2784H3.47994V75.8178H9.03967V71.2784H10.4444V81.8359H9.03967V77.0007H3.47994V81.8359H2.07522V71.2784ZM13.8701 72.8162H12.6133V71.2784H13.8701V72.8162ZM12.6133 74.1913H13.8701V81.8359H12.6133V74.1913ZM22.412 81.1853C22.412 82.4373 22.1261 83.3737 21.5544 83.9948C20.9826 84.6158 20.0856 84.9263 18.8632 84.9263C18.5084 84.9263 18.1436 84.8869 17.769 84.808C17.4043 84.7292 17.0691 84.601 16.7635 84.4236C16.4678 84.2461 16.2214 84.0145 16.0242 83.7286C15.8271 83.4427 15.7186 83.0928 15.6989 82.6788H16.9558C16.9656 82.9055 17.0346 83.0977 17.1628 83.2554C17.3008 83.4132 17.4634 83.5413 17.6507 83.6399C17.8479 83.7385 18.0598 83.8075 18.2866 83.8469C18.5133 83.8962 18.7302 83.9208 18.9372 83.9208C19.3512 83.9208 19.7011 83.8469 19.987 83.699C20.2729 83.561 20.5095 83.3639 20.6968 83.1076C20.8841 82.8611 21.0171 82.5605 21.096 82.2056C21.1847 81.8507 21.2291 81.4613 21.2291 81.0375V80.5347H21.1995C20.9826 81.0079 20.6524 81.3578 20.2088 81.5846C19.7751 81.8014 19.3118 81.9099 18.8189 81.9099C18.2471 81.9099 17.7493 81.8064 17.3254 81.5994C16.9016 81.3923 16.5467 81.1163 16.2608 80.7713C15.9749 80.4164 15.7581 80.0073 15.6102 79.544C15.4722 79.0709 15.4032 78.573 15.4032 78.0506C15.4032 77.5971 15.4623 77.1338 15.5806 76.6607C15.6989 76.1776 15.8961 75.7439 16.1721 75.3594C16.4481 74.9651 16.8128 74.6448 17.2663 74.3983C17.7197 74.142 18.2767 74.0139 18.9372 74.0139C19.4202 74.0139 19.8638 74.1223 20.268 74.3392C20.6721 74.5462 20.9876 74.8616 21.2143 75.2855H21.2291V74.1913H22.412V81.1853ZM18.8928 80.8157C19.3068 80.8157 19.6568 80.7319 19.9427 80.5643C20.2384 80.3869 20.475 80.1601 20.6524 79.8841C20.8298 79.5982 20.958 79.2779 21.0369 78.923C21.1256 78.5681 21.1699 78.2132 21.1699 77.8584C21.1699 77.5232 21.1305 77.193 21.0516 76.8677C20.9728 76.5424 20.8446 76.2516 20.6672 75.9953C20.4996 75.7291 20.2778 75.5172 20.0018 75.3594C19.7258 75.2017 19.3906 75.1229 18.9963 75.1229C18.5921 75.1229 18.2471 75.2017 17.9613 75.3594C17.6754 75.5073 17.4388 75.7094 17.2515 75.9657C17.0741 76.222 16.941 76.5177 16.8523 76.8529C16.7734 77.188 16.734 77.538 16.734 77.9027C16.734 78.2477 16.7685 78.5928 16.8375 78.9378C16.9065 79.2828 17.0248 79.5982 17.1924 79.8841C17.3599 80.1601 17.5817 80.3869 17.8578 80.5643C18.1338 80.7319 18.4788 80.8157 18.8928 80.8157ZM24.3079 71.2784H25.5648V75.3151H25.5943C25.6929 75.0785 25.8309 74.8813 26.0084 74.7236C26.1858 74.556 26.3829 74.423 26.5998 74.3244C26.8265 74.216 27.0582 74.1371 27.2948 74.0878C27.5412 74.0385 27.7778 74.0139 28.0045 74.0139C28.5073 74.0139 28.9262 74.0829 29.2614 74.2209C29.5966 74.3589 29.8676 74.5511 30.0746 74.7976C30.2817 75.044 30.4246 75.3397 30.5035 75.6847C30.5922 76.0199 30.6365 76.3945 30.6365 76.8085V81.8359H29.3797V76.6607C29.3797 76.1875 29.2417 75.8129 28.9657 75.5369C28.6896 75.2609 28.3101 75.1229 27.8271 75.1229C27.4426 75.1229 27.1075 75.182 26.8216 75.3003C26.5456 75.4186 26.3139 75.5862 26.1266 75.803C25.9394 76.0199 25.7964 76.2762 25.6978 76.5719C25.6091 76.8578 25.5648 77.1733 25.5648 77.5183V81.8359H24.3079V71.2784ZM41.0017 81.8359H39.4047L35.6933 71.2784H37.2015L40.218 80.4312H40.2475L43.2936 71.2784H44.7574L41.0017 81.8359ZM46.7499 72.8162H45.4931V71.2784H46.7499V72.8162ZM45.4931 74.1913H46.7499V81.8359H45.4931V74.1913ZM49.4659 79.4257C49.4758 79.7018 49.5398 79.9383 49.6581 80.1355C49.7764 80.3228 49.9292 80.4756 50.1165 80.5939C50.3137 80.7023 50.5305 80.7812 50.7671 80.8305C51.0136 80.8797 51.2649 80.9044 51.5212 80.9044C51.7184 80.9044 51.9254 80.8896 52.1423 80.86C52.3591 80.8305 52.5563 80.7762 52.7337 80.6974C52.921 80.6185 53.0738 80.5052 53.1921 80.3573C53.3104 80.1996 53.3695 80.0024 53.3695 79.7658C53.3695 79.4405 53.2463 79.1941 52.9999 79.0265C52.7534 78.8589 52.4429 78.7258 52.0683 78.6273C51.7036 78.5188 51.3044 78.4252 50.8706 78.3463C50.4369 78.2576 50.0327 78.1393 49.6581 77.9914C49.2934 77.8337 48.9878 77.6169 48.7414 77.3408C48.4949 77.0648 48.3717 76.6804 48.3717 76.1875C48.3717 75.803 48.4555 75.4728 48.6231 75.1968C48.8005 74.9208 49.0223 74.699 49.2885 74.5314C49.5645 74.354 49.8701 74.2258 50.2052 74.1469C50.5502 74.0582 50.8903 74.0139 51.2255 74.0139C51.6592 74.0139 52.0585 74.0533 52.4232 74.1322C52.7879 74.2012 53.1083 74.3293 53.3843 74.5166C53.6702 74.694 53.8969 74.9405 54.0645 75.2559C54.2321 75.5615 54.3307 75.946 54.3602 76.4093H53.1034C53.0837 76.1628 53.0196 75.9608 52.9112 75.803C52.8027 75.6355 52.6647 75.5024 52.4971 75.4038C52.3296 75.3052 52.1423 75.2362 51.9352 75.1968C51.7381 75.1475 51.536 75.1229 51.329 75.1229C51.1417 75.1229 50.9495 75.1376 50.7523 75.1672C50.565 75.1968 50.3925 75.251 50.2348 75.3299C50.0771 75.3989 49.9489 75.4975 49.8503 75.6256C49.7518 75.7439 49.7025 75.9016 49.7025 76.0988C49.7025 76.3156 49.7764 76.498 49.9243 76.6459C50.082 76.7839 50.2792 76.9022 50.5157 77.0007C50.7523 77.0895 51.0185 77.1683 51.3142 77.2373C51.6099 77.2965 51.9057 77.3606 52.2014 77.4296C52.5168 77.4986 52.8224 77.5823 53.1182 77.6809C53.4238 77.7795 53.6899 77.9126 53.9166 78.0802C54.1532 78.2379 54.3405 78.44 54.4785 78.6864C54.6264 78.9329 54.7003 79.2384 54.7003 79.6032C54.7003 80.0665 54.6017 80.4509 54.4046 80.7565C54.2173 81.0621 53.9659 81.3086 53.6505 81.4958C53.3449 81.6831 52.9949 81.8113 52.6006 81.8803C52.2162 81.9592 51.8317 81.9986 51.4473 81.9986C51.0234 81.9986 50.6192 81.9542 50.2348 81.8655C49.8503 81.7768 49.5103 81.6339 49.2145 81.4367C48.9188 81.2297 48.6822 80.9635 48.5048 80.6382C48.3273 80.3031 48.2288 79.8989 48.209 79.4257H49.4659ZM62.8625 81.8064C62.6456 81.9345 62.345 81.9986 61.9605 81.9986C61.6352 81.9986 61.374 81.9099 61.1768 81.7324C60.9895 81.5451 60.8959 81.2445 60.8959 80.8305C60.5509 81.2445 60.1467 81.5451 59.6834 81.7324C59.2299 81.9099 58.737 81.9986 58.2047 81.9986C57.8597 81.9986 57.5295 81.9592 57.214 81.8803C56.9084 81.8014 56.6423 81.6782 56.4156 81.5106C56.1888 81.3431 56.0065 81.1262 55.8685 80.86C55.7403 80.584 55.6762 80.2538 55.6762 79.8693C55.6762 79.4356 55.7502 79.0807 55.898 78.8047C56.0459 78.5287 56.2381 78.3069 56.4747 78.1393C56.7211 77.9619 56.9972 77.8288 57.3027 77.7401C57.6182 77.6514 57.9386 77.5774 58.2639 77.5183C58.6089 77.4493 58.9342 77.4 59.2398 77.3704C59.5552 77.331 59.8312 77.2817 60.0678 77.2225C60.3044 77.1535 60.4917 77.0599 60.6297 76.9416C60.7677 76.8135 60.8367 76.6311 60.8367 76.3945C60.8367 76.1185 60.7825 75.8967 60.6741 75.7291C60.5755 75.5615 60.4424 75.4334 60.2748 75.3447C60.1171 75.2559 59.9347 75.1968 59.7277 75.1672C59.5306 75.1376 59.3334 75.1229 59.1363 75.1229C58.604 75.1229 58.1604 75.2264 57.8055 75.4334C57.4506 75.6305 57.2584 76.01 57.2288 76.5719H55.972C55.9917 76.0988 56.0903 75.6995 56.2677 75.3742C56.4451 75.0489 56.6817 74.7877 56.9774 74.5905C57.2732 74.3835 57.6083 74.2357 57.9829 74.1469C58.3674 74.0582 58.7765 74.0139 59.2102 74.0139C59.5552 74.0139 59.8953 74.0385 60.2305 74.0878C60.5755 74.1371 60.886 74.2406 61.162 74.3983C61.438 74.5462 61.6598 74.7581 61.8274 75.0341C61.995 75.3102 62.0788 75.67 62.0788 76.1136V80.0468C62.0788 80.3425 62.0936 80.5594 62.1232 80.6974C62.1626 80.8354 62.2809 80.9044 62.478 80.9044C62.5865 80.9044 62.7146 80.8797 62.8625 80.8305V81.8064ZM60.8219 77.8879C60.6642 78.0062 60.4572 78.0949 60.2009 78.1541C59.9446 78.2034 59.6735 78.2477 59.3876 78.2872C59.1116 78.3167 58.8307 78.3562 58.5448 78.4055C58.2589 78.4449 58.0026 78.5139 57.7759 78.6125C57.5492 78.7111 57.3619 78.854 57.214 79.0413C57.076 79.2187 57.007 79.4652 57.007 79.7806C57.007 79.9876 57.0464 80.1651 57.1253 80.3129C57.214 80.4509 57.3225 80.5643 57.4506 80.653C57.5886 80.7417 57.7463 80.8058 57.9238 80.8452C58.1012 80.8847 58.2885 80.9044 58.4857 80.9044C58.8997 80.9044 59.2546 80.8502 59.5503 80.7417C59.846 80.6234 60.0875 80.4805 60.2748 80.3129C60.4621 80.1355 60.6001 79.9482 60.6889 79.751C60.7776 79.544 60.8219 79.3518 60.8219 79.1744V77.8879ZM8.18206 94.3687C8.10319 93.6097 7.82718 93.0626 7.35401 92.7274C6.8907 92.3824 6.29431 92.2099 5.56484 92.2099C5.26911 92.2099 4.97831 92.2395 4.69244 92.2986C4.40656 92.3578 4.15026 92.4564 3.92354 92.5944C3.70667 92.7324 3.52923 92.9197 3.39122 93.1563C3.26307 93.383 3.199 93.6689 3.199 94.0139C3.199 94.3392 3.29265 94.6053 3.47994 94.8123C3.6771 95.0095 3.9334 95.1721 4.24884 95.3003C4.57414 95.4284 4.93888 95.5369 5.34304 95.6256C5.74721 95.7045 6.1563 95.7932 6.57032 95.8918C6.9942 95.9903 7.40823 96.1086 7.81239 96.2466C8.21656 96.3748 8.57636 96.5522 8.89181 96.7789C9.21711 97.0057 9.47341 97.2915 9.66071 97.6366C9.85786 97.9816 9.95644 98.4153 9.95644 98.9378C9.95644 99.4997 9.82829 99.9827 9.57199 100.387C9.32555 100.781 9.00517 101.106 8.61086 101.363C8.21656 101.609 7.77296 101.787 7.28008 101.895C6.79705 102.013 6.31403 102.073 5.831 102.073C5.23954 102.073 4.67765 101.999 4.14534 101.851C3.62288 101.703 3.15957 101.481 2.7554 101.185C2.3611 100.88 2.04565 100.495 1.80907 100.032C1.58234 99.5588 1.46898 99.0019 1.46898 98.3611H2.79976C2.79976 98.8047 2.88355 99.1892 3.05113 99.5145C3.22857 99.8299 3.4553 100.091 3.73131 100.298C4.01719 100.505 4.34742 100.658 4.72201 100.757C5.0966 100.855 5.48105 100.904 5.87536 100.904C6.1908 100.904 6.50625 100.875 6.8217 100.816C7.147 100.757 7.4378 100.658 7.6941 100.52C7.9504 100.372 8.15741 100.175 8.31513 99.9285C8.47286 99.682 8.55172 99.3666 8.55172 98.9821C8.55172 98.6174 8.45314 98.3217 8.25599 98.0949C8.06869 97.8682 7.81239 97.6859 7.48709 97.5478C7.17164 97.4 6.81184 97.2817 6.40767 97.193C6.00351 97.1043 5.58949 97.0155 5.16561 96.9268C4.75158 96.8282 4.34249 96.7198 3.93832 96.6015C3.53416 96.4734 3.16943 96.3107 2.84412 96.1136C2.52868 95.9065 2.27238 95.6453 2.07522 95.3299C1.88793 95.0046 1.79428 94.6004 1.79428 94.1174C1.79428 93.5851 1.90271 93.1267 2.11958 92.7422C2.33645 92.3479 2.62232 92.0275 2.9772 91.7811C3.34194 91.5248 3.75103 91.3375 4.20448 91.2192C4.66779 91.0911 5.14096 91.027 5.62399 91.027C6.16616 91.027 6.6689 91.0911 7.13221 91.2192C7.59552 91.3474 7.99969 91.5494 8.34471 91.8255C8.69958 92.1015 8.9756 92.4514 9.17275 92.8753C9.37976 93.2893 9.49313 93.7871 9.51284 94.3687H8.18206ZM17.785 101.836H16.6021V100.623H16.5725C16.3063 101.097 15.9662 101.447 15.5522 101.673C15.1382 101.89 14.6502 101.999 14.0883 101.999C13.5856 101.999 13.1667 101.935 12.8315 101.806C12.4963 101.668 12.2252 101.476 12.0182 101.23C11.8112 100.983 11.6634 100.692 11.5746 100.357C11.4958 100.012 11.4563 99.6327 11.4563 99.2187V94.1913H12.7132V99.3666C12.7132 99.8398 12.8512 100.214 13.1272 100.49C13.4032 100.766 13.7828 100.904 14.2658 100.904C14.6502 100.904 14.9805 100.845 15.2565 100.727C15.5424 100.609 15.7789 100.441 15.9662 100.224C16.1535 100.007 16.2915 99.756 16.3803 99.4701C16.4788 99.1744 16.5281 98.854 16.5281 98.509V94.1913H17.785V101.836ZM24.8627 96.6459C24.7642 96.1628 24.5572 95.7883 24.2417 95.5221C23.9263 95.2559 23.5024 95.1229 22.9701 95.1229C22.5166 95.1229 22.1371 95.2066 21.8315 95.3742C21.5259 95.5418 21.2795 95.7636 21.0922 96.0396C20.9147 96.3156 20.7866 96.636 20.7077 97.0007C20.6289 97.3556 20.5894 97.7253 20.5894 98.1097C20.5894 98.4646 20.6289 98.8096 20.7077 99.1448C20.7965 99.48 20.9295 99.7806 21.107 100.047C21.2844 100.303 21.5161 100.51 21.8019 100.668C22.0878 100.826 22.4279 100.904 22.8222 100.904C23.4432 100.904 23.9263 100.742 24.2713 100.416C24.6262 100.091 24.843 99.6327 24.9219 99.0413H26.2083C26.0703 99.9876 25.7154 100.717 25.1437 101.23C24.5818 101.742 23.8129 101.999 22.837 101.999C22.2554 101.999 21.7379 101.905 21.2844 101.718C20.8408 101.53 20.4662 101.264 20.1606 100.919C19.8649 100.574 19.6382 100.165 19.4805 99.6919C19.3326 99.2089 19.2587 98.6815 19.2587 98.1097C19.2587 97.538 19.3326 97.0057 19.4805 96.5128C19.6283 96.01 19.8501 95.5763 20.1458 95.2116C20.4514 94.837 20.831 94.5462 21.2844 94.3392C21.7379 94.1223 22.2652 94.0139 22.8666 94.0139C23.3003 94.0139 23.7045 94.0681 24.0791 94.1765C24.4635 94.2751 24.7987 94.4328 25.0845 94.6497C25.3803 94.8666 25.6218 95.1426 25.8091 95.4777C25.9964 95.803 26.1147 96.1924 26.164 96.6459H24.8627ZM32.8047 96.6459C32.7061 96.1628 32.4991 95.7883 32.1837 95.5221C31.8682 95.2559 31.4444 95.1229 30.9121 95.1229C30.4586 95.1229 30.0791 95.2066 29.7735 95.3742C29.4679 95.5418 29.2215 95.7636 29.0342 96.0396C28.8567 96.3156 28.7286 96.636 28.6497 97.0007C28.5709 97.3556 28.5314 97.7253 28.5314 98.1097C28.5314 98.4646 28.5709 98.8096 28.6497 99.1448C28.7384 99.48 28.8715 99.7806 29.0489 100.047C29.2264 100.303 29.458 100.51 29.7439 100.668C30.0298 100.826 30.3699 100.904 30.7642 100.904C31.3852 100.904 31.8682 100.742 32.2133 100.416C32.5681 100.091 32.785 99.6327 32.8639 99.0413H34.1503C34.0123 99.9876 33.6574 100.717 33.0857 101.23C32.5238 101.742 31.7549 101.999 30.779 101.999C30.1974 101.999 29.6798 101.905 29.2264 101.718C28.7828 101.53 28.4082 101.264 28.1026 100.919C27.8069 100.574 27.5802 100.165 27.4224 99.6919C27.2746 99.2089 27.2006 98.6815 27.2006 98.1097C27.2006 97.538 27.2746 97.0057 27.4224 96.5128C27.5703 96.01 27.7921 95.5763 28.0878 95.2116C28.3934 94.837 28.7729 94.5462 29.2264 94.3392C29.6798 94.1223 30.2072 94.0139 30.8085 94.0139C31.2423 94.0139 31.6464 94.0681 32.021 94.1765C32.4055 94.2751 32.7406 94.4328 33.0265 94.6497C33.3223 94.8666 33.5638 95.1426 33.7511 95.4777C33.9384 95.803 34.0566 96.1924 34.1059 96.6459H32.8047ZM40.865 97.2817C40.8453 96.986 40.7763 96.705 40.658 96.4389C40.5495 96.1727 40.3968 95.946 40.1996 95.7587C40.0123 95.5615 39.7856 95.4087 39.5194 95.3003C39.2631 95.182 38.9772 95.1229 38.6618 95.1229C38.3365 95.1229 38.0408 95.182 37.7746 95.3003C37.5183 95.4087 37.2965 95.5615 37.1092 95.7587C36.9219 95.9558 36.7741 96.1875 36.6656 96.4536C36.5572 96.7099 36.4931 96.986 36.4734 97.2817H40.865ZM42.0775 99.4109C41.9099 100.269 41.5402 100.914 40.9685 101.348C40.3968 101.782 39.6771 101.999 38.8097 101.999C38.1985 101.999 37.6662 101.9 37.2127 101.703C36.7691 101.506 36.3945 101.23 36.0889 100.875C35.7834 100.52 35.5517 100.096 35.394 99.6032C35.2461 99.1103 35.1623 98.573 35.1426 97.9914C35.1426 97.4098 35.2313 96.8775 35.4088 96.3945C35.5862 95.9115 35.8327 95.4925 36.1481 95.1376C36.4734 94.7828 36.8529 94.5068 37.2867 94.3096C37.7303 94.1124 38.2133 94.0139 38.7357 94.0139C39.4159 94.0139 39.9778 94.1568 40.4214 94.4427C40.8749 94.7187 41.2347 95.0736 41.5008 95.5073C41.7768 95.941 41.9641 96.4142 42.0627 96.9268C42.1711 97.4394 42.2155 97.9274 42.1958 98.3907H36.4734C36.4635 98.7258 36.503 99.0462 36.5917 99.3518C36.6804 99.6475 36.8233 99.9137 37.0205 100.15C37.2177 100.377 37.469 100.559 37.7746 100.697C38.0802 100.835 38.44 100.904 38.854 100.904C39.3863 100.904 39.8201 100.781 40.1552 100.535C40.5003 100.288 40.727 99.9137 40.8354 99.4109H42.0775ZM44.2675 99.4257C44.2774 99.7018 44.3414 99.9383 44.4597 100.135C44.578 100.323 44.7308 100.476 44.9181 100.594C45.1153 100.702 45.3321 100.781 45.5687 100.83C45.8152 100.88 46.0665 100.904 46.3228 100.904C46.52 100.904 46.727 100.89 46.9439 100.86C47.1607 100.83 47.3579 100.776 47.5353 100.697C47.7226 100.619 47.8754 100.505 47.9937 100.357C48.112 100.2 48.1711 100.002 48.1711 99.7658C48.1711 99.4405 48.0479 99.1941 47.8015 99.0265C47.555 98.8589 47.2445 98.7258 46.8699 98.6273C46.5052 98.5188 46.106 98.4252 45.6722 98.3463C45.2385 98.2576 44.8343 98.1393 44.4597 97.9914C44.095 97.8337 43.7894 97.6169 43.543 97.3408C43.2965 97.0648 43.1733 96.6804 43.1733 96.1875C43.1733 95.803 43.2571 95.4728 43.4247 95.1968C43.6021 94.9208 43.8239 94.699 44.0901 94.5314C44.3661 94.354 44.6717 94.2258 45.0068 94.1469C45.3519 94.0582 45.6919 94.0139 46.0271 94.0139C46.4608 94.0139 46.8601 94.0533 47.2248 94.1322C47.5895 94.2012 47.9099 94.3293 48.1859 94.5166C48.4718 94.694 48.6985 94.9405 48.8661 95.2559C49.0337 95.5615 49.1323 95.946 49.1618 96.4093H47.905C47.8853 96.1628 47.8212 95.9608 47.7128 95.803C47.6043 95.6355 47.4663 95.5024 47.2987 95.4038C47.1312 95.3052 46.9439 95.2362 46.7369 95.1968C46.5397 95.1475 46.3376 95.1229 46.1306 95.1229C45.9433 95.1229 45.7511 95.1376 45.5539 95.1672C45.3666 95.1968 45.1941 95.251 45.0364 95.3299C44.8787 95.3989 44.7505 95.4975 44.652 95.6256C44.5534 95.7439 44.5041 95.9016 44.5041 96.0988C44.5041 96.3156 44.578 96.498 44.7259 96.6459C44.8836 96.7839 45.0808 96.9022 45.3174 97.0007C45.5539 97.0895 45.8201 97.1683 46.1158 97.2373C46.4116 97.2965 46.7073 97.3606 47.003 97.4296C47.3185 97.4986 47.624 97.5823 47.9198 97.6809C48.2254 97.7795 48.4915 97.9126 48.7183 98.0802C48.9548 98.2379 49.1421 98.44 49.2801 98.6864C49.428 98.9329 49.5019 99.2384 49.5019 99.6032C49.5019 100.066 49.4034 100.451 49.2062 100.757C49.0189 101.062 48.7675 101.309 48.4521 101.496C48.1465 101.683 47.7966 101.811 47.4023 101.88C47.0178 101.959 46.6334 101.999 46.2489 101.999C45.825 101.999 45.4209 101.954 45.0364 101.866C44.652 101.777 44.3119 101.634 44.0161 101.437C43.7204 101.23 43.4838 100.964 43.3064 100.638C43.1289 100.303 43.0304 99.8989 43.0107 99.4257H44.2675ZM51.6608 99.4257C51.6706 99.7018 51.7347 99.9383 51.853 100.135C51.9713 100.323 52.1241 100.476 52.3114 100.594C52.5085 100.702 52.7254 100.781 52.962 100.83C53.2084 100.88 53.4598 100.904 53.7161 100.904C53.9132 100.904 54.1203 100.89 54.3371 100.86C54.554 100.83 54.7512 100.776 54.9286 100.697C55.1159 100.619 55.2687 100.505 55.387 100.357C55.5053 100.2 55.5644 100.002 55.5644 99.7658C55.5644 99.4405 55.4412 99.1941 55.1947 99.0265C54.9483 98.8589 54.6378 98.7258 54.2632 98.6273C53.8985 98.5188 53.4992 98.4252 53.0655 98.3463C52.6318 98.2576 52.2276 98.1393 51.853 97.9914C51.4883 97.8337 51.1827 97.6169 50.9362 97.3408C50.6898 97.0648 50.5666 96.6804 50.5666 96.1875C50.5666 95.803 50.6504 95.4728 50.8179 95.1968C50.9954 94.9208 51.2172 94.699 51.4833 94.5314C51.7593 94.354 52.0649 94.2258 52.4001 94.1469C52.7451 94.0582 53.0852 94.0139 53.4204 94.0139C53.8541 94.0139 54.2533 94.0533 54.6181 94.1322C54.9828 94.2012 55.3032 94.3293 55.5792 94.5166C55.8651 94.694 56.0918 94.9405 56.2594 95.2559C56.427 95.5615 56.5255 95.946 56.5551 96.4093H55.2983C55.2785 96.1628 55.2145 95.9608 55.106 95.803C54.9976 95.6355 54.8596 95.5024 54.692 95.4038C54.5244 95.3052 54.3371 95.2362 54.1301 95.1968C53.933 95.1475 53.7309 95.1229 53.5239 95.1229C53.3366 95.1229 53.1444 95.1376 52.9472 95.1672C52.7599 95.1968 52.5874 95.251 52.4297 95.3299C52.2719 95.3989 52.1438 95.4975 52.0452 95.6256C51.9466 95.7439 51.8974 95.9016 51.8974 96.0988C51.8974 96.3156 51.9713 96.498 52.1192 96.6459C52.2769 96.7839 52.474 96.9022 52.7106 97.0007C52.9472 97.0895 53.2134 97.1683 53.5091 97.2373C53.8048 97.2965 54.1005 97.3606 54.3963 97.4296C54.7117 97.4986 55.0173 97.5823 55.313 97.6809C55.6186 97.7795 55.8848 97.9126 56.1115 98.0802C56.3481 98.2379 56.5354 98.44 56.6734 98.6864C56.8213 98.9329 56.8952 99.2384 56.8952 99.6032C56.8952 100.066 56.7966 100.451 56.5995 100.757C56.4122 101.062 56.1608 101.309 55.8454 101.496C55.5398 101.683 55.1898 101.811 54.7955 101.88C54.4111 101.959 54.0266 101.999 53.6422 101.999C53.2183 101.999 52.8141 101.954 52.4297 101.866C52.0452 101.777 51.7051 101.634 51.4094 101.437C51.1137 101.23 50.8771 100.964 50.6996 100.638C50.5222 100.303 50.4236 99.8989 50.4039 99.4257H51.6608ZM59.054 99.4257C59.0639 99.7018 59.128 99.9383 59.2463 100.135C59.3645 100.323 59.5173 100.476 59.7046 100.594C59.9018 100.702 60.1187 100.781 60.3552 100.83C60.6017 100.88 60.8531 100.904 61.1094 100.904C61.3065 100.904 61.5135 100.89 61.7304 100.86C61.9473 100.83 62.1444 100.776 62.3218 100.697C62.5091 100.619 62.6619 100.505 62.7802 100.357C62.8985 100.2 62.9577 100.002 62.9577 99.7658C62.9577 99.4405 62.8344 99.1941 62.588 99.0265C62.3416 98.8589 62.031 98.7258 61.6565 98.6273C61.2917 98.5188 60.8925 98.4252 60.4587 98.3463C60.025 98.2576 59.6208 98.1393 59.2463 97.9914C58.8815 97.8337 58.5759 97.6169 58.3295 97.3408C58.083 97.0648 57.9598 96.6804 57.9598 96.1875C57.9598 95.803 58.0436 95.4728 58.2112 95.1968C58.3886 94.9208 58.6104 94.699 58.8766 94.5314C59.1526 94.354 59.4582 94.2258 59.7934 94.1469C60.1384 94.0582 60.4785 94.0139 60.8136 94.0139C61.2474 94.0139 61.6466 94.0533 62.0113 94.1322C62.3761 94.2012 62.6964 94.3293 62.9725 94.5166C63.2583 94.694 63.4851 94.9405 63.6526 95.2559C63.8202 95.5615 63.9188 95.946 63.9484 96.4093H62.6915C62.6718 96.1628 62.6077 95.9608 62.4993 95.803C62.3909 95.6355 62.2528 95.5024 62.0853 95.4038C61.9177 95.3052 61.7304 95.2362 61.5234 95.1968C61.3262 95.1475 61.1241 95.1229 60.9171 95.1229C60.7298 95.1229 60.5376 95.1376 60.3405 95.1672C60.1532 95.1968 59.9806 95.251 59.8229 95.3299C59.6652 95.3989 59.5371 95.4975 59.4385 95.6256C59.3399 95.7439 59.2906 95.9016 59.2906 96.0988C59.2906 96.3156 59.3645 96.498 59.5124 96.6459C59.6701 96.7839 59.8673 96.9022 60.1039 97.0007C60.3405 97.0895 60.6066 97.1683 60.9023 97.2373C61.1981 97.2965 61.4938 97.3606 61.7895 97.4296C62.105 97.4986 62.4106 97.5823 62.7063 97.6809C63.0119 97.7795 63.278 97.9126 63.5048 98.0802C63.7414 98.2379 63.9286 98.44 64.0667 98.6864C64.2145 98.9329 64.2885 99.2384 64.2885 99.6032C64.2885 100.066 64.1899 100.451 63.9927 100.757C63.8054 101.062 63.5541 101.309 63.2386 101.496C62.933 101.683 62.5831 101.811 62.1888 101.88C61.8043 101.959 61.4199 101.999 61.0354 101.999C60.6115 101.999 60.2074 101.954 59.8229 101.866C59.4385 101.777 59.0984 101.634 58.8027 101.437C58.5069 101.23 58.2703 100.964 58.0929 100.638C57.9155 100.303 57.8169 99.8989 57.7972 99.4257H59.054ZM70.0008 91.2784H74.9691C75.9745 91.2784 76.7582 91.5248 77.3201 92.0177C77.8919 92.5106 78.1777 93.1858 78.1777 94.0434C78.1777 94.6842 78.0299 95.2461 77.7341 95.7291C77.4483 96.2121 76.9849 96.5424 76.3442 96.7198V96.7494C76.6498 96.8085 76.8962 96.9071 77.0835 97.0451C77.2807 97.1831 77.4335 97.3507 77.5419 97.5478C77.6602 97.7351 77.744 97.9471 77.7933 98.1837C77.8524 98.4203 77.8968 98.6667 77.9264 98.923C77.9461 99.1793 77.9609 99.4405 77.9707 99.7067C77.9806 99.9728 78.0052 100.234 78.0446 100.49C78.0841 100.747 78.1383 100.993 78.2073 101.23C78.2862 101.456 78.3995 101.658 78.5474 101.836H76.98C76.8814 101.728 76.8124 101.58 76.773 101.392C76.7434 101.205 76.7237 100.998 76.7139 100.771C76.704 100.535 76.6941 100.283 76.6843 100.017C76.6744 99.751 76.6449 99.4898 76.5956 99.2335C76.5561 98.9772 76.5069 98.7357 76.4477 98.509C76.3886 98.2724 76.2949 98.0703 76.1668 97.9027C76.0386 97.7253 75.871 97.5873 75.664 97.4887C75.457 97.3803 75.181 97.326 74.836 97.326H71.4055V101.836H70.0008V91.2784ZM74.3332 96.1431C74.6585 96.1431 74.9691 96.1185 75.2648 96.0692C75.5605 96.0199 75.8168 95.9263 76.0337 95.7883C76.2604 95.6404 76.4378 95.4482 76.566 95.2116C76.704 94.9651 76.773 94.6497 76.773 94.2652C76.773 93.7329 76.6251 93.2992 76.3294 92.964C76.0337 92.6289 75.5556 92.4613 74.8951 92.4613H71.4055V96.1431H74.3332ZM86.6884 101.806C86.4715 101.935 86.1709 101.999 85.7864 101.999C85.4611 101.999 85.1999 101.91 85.0027 101.732C84.8155 101.545 84.7218 101.244 84.7218 100.83C84.3768 101.244 83.9726 101.545 83.5093 101.732C83.0559 101.91 82.563 101.999 82.0307 101.999C81.6856 101.999 81.3554 101.959 81.04 101.88C80.7344 101.801 80.4682 101.678 80.2415 101.511C80.0148 101.343 79.8324 101.126 79.6944 100.86C79.5662 100.584 79.5022 100.254 79.5022 99.8693C79.5022 99.4356 79.5761 99.0807 79.724 98.8047C79.8718 98.5287 80.0641 98.3069 80.3006 98.1393C80.5471 97.9619 80.8231 97.8288 81.1287 97.7401C81.4441 97.6514 81.7645 97.5774 82.0898 97.5183C82.4348 97.4493 82.7601 97.4 83.0657 97.3704C83.3812 97.331 83.6572 97.2817 83.8938 97.2225C84.1303 97.1535 84.3176 97.0599 84.4556 96.9416C84.5937 96.8135 84.6627 96.6311 84.6627 96.3945C84.6627 96.1185 84.6084 95.8967 84.5 95.7291C84.4014 95.5615 84.2684 95.4334 84.1008 95.3447C83.943 95.2559 83.7607 95.1968 83.5537 95.1672C83.3565 95.1376 83.1594 95.1229 82.9622 95.1229C82.4299 95.1229 81.9863 95.2264 81.6314 95.4334C81.2765 95.6305 81.0843 96.01 81.0547 96.5719H79.7979C79.8176 96.0988 79.9162 95.6995 80.0936 95.3742C80.2711 95.0489 80.5076 94.7877 80.8034 94.5905C81.0991 94.3835 81.4343 94.2357 81.8089 94.1469C82.1933 94.0582 82.6024 94.0139 83.0361 94.0139C83.3812 94.0139 83.7212 94.0385 84.0564 94.0878C84.4014 94.1371 84.7119 94.2406 84.988 94.3983C85.264 94.5462 85.4858 94.7581 85.6534 95.0341C85.8209 95.3102 85.9047 95.67 85.9047 96.1136V100.047C85.9047 100.342 85.9195 100.559 85.9491 100.697C85.9885 100.835 86.1068 100.904 86.304 100.904C86.4124 100.904 86.5405 100.88 86.6884 100.83V101.806ZM84.6479 97.8879C84.4901 98.0062 84.2831 98.0949 84.0268 98.1541C83.7705 98.2034 83.4995 98.2477 83.2136 98.2872C82.9376 98.3167 82.6566 98.3562 82.3707 98.4055C82.0849 98.4449 81.8286 98.5139 81.6018 98.6125C81.3751 98.7111 81.1878 98.854 81.04 99.0413C80.902 99.2187 80.8329 99.4652 80.8329 99.7806C80.8329 99.9876 80.8724 100.165 80.9512 100.313C81.04 100.451 81.1484 100.564 81.2765 100.653C81.4146 100.742 81.5723 100.806 81.7497 100.845C81.9272 100.885 82.1144 100.904 82.3116 100.904C82.7256 100.904 83.0805 100.85 83.3762 100.742C83.672 100.623 83.9135 100.481 84.1008 100.313C84.2881 100.135 84.4261 99.9482 84.5148 99.751C84.6035 99.544 84.6479 99.3518 84.6479 99.1744V97.8879ZM89.603 94.1913H91.126V95.3003H89.603V100.047C89.603 100.195 89.6128 100.313 89.6325 100.402C89.6621 100.49 89.7114 100.559 89.7804 100.609C89.8494 100.658 89.9431 100.692 90.0614 100.712C90.1895 100.722 90.3522 100.727 90.5493 100.727H91.126V101.836H90.1649C89.8396 101.836 89.5586 101.816 89.322 101.777C89.0953 101.728 88.908 101.644 88.7601 101.525C88.6221 101.407 88.5186 101.24 88.4496 101.023C88.3806 100.806 88.3461 100.52 88.3461 100.165V95.3003H87.0449V94.1913H88.3461V91.8994H89.603V94.1913ZM97.8306 97.2817C97.8109 96.986 97.7419 96.705 97.6236 96.4389C97.5152 96.1727 97.3624 95.946 97.1652 95.7587C96.9779 95.5615 96.7512 95.4087 96.4851 95.3003C96.2288 95.182 95.9429 95.1229 95.6274 95.1229C95.3021 95.1229 95.0064 95.182 94.7403 95.3003C94.484 95.4087 94.2622 95.5615 94.0749 95.7587C93.8876 95.9558 93.7397 96.1875 93.6313 96.4536C93.5228 96.7099 93.4588 96.986 93.439 97.2817H97.8306ZM99.0431 99.4109C98.8755 100.269 98.5059 100.914 97.9341 101.348C97.3624 101.782 96.6428 101.999 95.7753 101.999C95.1641 101.999 94.6318 101.9 94.1784 101.703C93.7348 101.506 93.3602 101.23 93.0546 100.875C92.749 100.52 92.5173 100.096 92.3596 99.6032C92.2118 99.1103 92.128 98.573 92.1083 97.9914C92.1083 97.4098 92.197 96.8775 92.3744 96.3945C92.5518 95.9115 92.7983 95.4925 93.1137 95.1376C93.439 94.7828 93.8186 94.5068 94.2523 94.3096C94.6959 94.1124 95.1789 94.0139 95.7014 94.0139C96.3816 94.0139 96.9434 94.1568 97.387 94.4427C97.8405 94.7187 98.2003 95.0736 98.4665 95.5073C98.7425 95.941 98.9298 96.4142 99.0283 96.9268C99.1368 97.4394 99.1811 97.9274 99.1614 98.3907H93.439C93.4292 98.7258 93.4686 99.0462 93.5573 99.3518C93.646 99.6475 93.789 99.9137 93.9861 100.15C94.1833 100.377 94.4347 100.559 94.7403 100.697C95.0458 100.835 95.4056 100.904 95.8197 100.904C96.352 100.904 96.7857 100.781 97.1209 100.535C97.4659 100.288 97.6926 99.9137 97.8011 99.4109H99.0431Z" fill="white"/>
</svg>
