<svg width="109" height="107" viewBox="0 0 109 107" fill="none" xmlns="http://www.w3.org/2000/svg">
<circle cx="25.0476" cy="25.0303" r="24.1707" fill="#D9D9D9" fill-opacity="0.08"/>
<g clip-path="url(#clip0_1989_2137)">
<path d="M36.0144 20.5146C34.6787 14.6373 29.5519 11.9912 25.0485 11.9912C25.0485 11.9912 25.0485 11.9912 25.0358 11.9912C20.5452 11.9912 15.4057 14.6245 14.07 20.5018C12.5816 27.0661 16.6015 32.6253 20.2398 36.1237C21.5883 37.4213 23.3184 38.0701 25.0485 38.0701C26.7787 38.0701 28.5088 37.4213 29.8445 36.1237C33.4828 32.6253 37.5028 27.0788 36.0144 20.5146ZM25.0485 26.888C22.835 26.888 21.0413 25.0943 21.0413 22.8807C21.0413 20.6672 22.835 18.8735 25.0485 18.8735C27.2621 18.8735 29.0558 20.6672 29.0558 22.8807C29.0558 25.0943 27.2621 26.888 25.0485 26.888Z" fill="white"/>
</g>
<path d="M2.0303 71.2784H3.43502V80.653H9.02432V81.8359H2.0303V71.2784ZM10.9564 78.021C10.9564 78.4843 11.0155 78.8983 11.1338 79.2631C11.262 79.618 11.4345 79.9186 11.6514 80.1651C11.8682 80.4016 12.1196 80.584 12.4055 80.7122C12.7012 80.8403 13.0117 80.9044 13.337 80.9044C13.6623 80.9044 13.9679 80.8403 14.2538 80.7122C14.5495 80.584 14.8058 80.4016 15.0227 80.1651C15.2396 79.9186 15.4071 79.618 15.5254 79.2631C15.6536 78.8983 15.7176 78.4843 15.7176 78.021C15.7176 77.5577 15.6536 77.1486 15.5254 76.7937C15.4071 76.429 15.2396 76.1234 15.0227 75.877C14.8058 75.6305 14.5495 75.4432 14.2538 75.3151C13.9679 75.1869 13.6623 75.1229 13.337 75.1229C13.0117 75.1229 12.7012 75.1869 12.4055 75.3151C12.1196 75.4432 11.8682 75.6305 11.6514 75.877C11.4345 76.1234 11.262 76.429 11.1338 76.7937C11.0155 77.1486 10.9564 77.5577 10.9564 78.021ZM9.6256 78.021C9.6256 77.4591 9.70447 76.9367 9.86219 76.4536C10.0199 75.9608 10.2565 75.5369 10.5719 75.182C10.8874 74.8173 11.2768 74.5314 11.7401 74.3244C12.2034 74.1174 12.7357 74.0139 13.337 74.0139C13.9482 74.0139 14.4805 74.1174 14.934 74.3244C15.3973 74.5314 15.7867 74.8173 16.1021 75.182C16.4175 75.5369 16.6541 75.9608 16.8119 76.4536C16.9696 76.9367 17.0484 77.4591 17.0484 78.021C17.0484 78.5829 16.9696 79.1054 16.8119 79.5884C16.6541 80.0714 16.4175 80.4953 16.1021 80.86C15.7867 81.2149 15.3973 81.4958 14.934 81.7029C14.4805 81.9 13.9482 81.9986 13.337 81.9986C12.7357 81.9986 12.2034 81.9 11.7401 81.7029C11.2768 81.4958 10.8874 81.2149 10.5719 80.86C10.2565 80.4953 10.0199 80.0714 9.86219 79.5884C9.70447 79.1054 9.6256 78.5829 9.6256 78.021ZM23.7204 76.6459C23.6218 76.1628 23.4148 75.7883 23.0994 75.5221C22.7839 75.2559 22.36 75.1229 21.8277 75.1229C21.3743 75.1229 20.9947 75.2066 20.6892 75.3742C20.3836 75.5418 20.1371 75.7636 19.9498 76.0396C19.7724 76.3156 19.6442 76.636 19.5654 77.0007C19.4865 77.3556 19.4471 77.7253 19.4471 78.1097C19.4471 78.4646 19.4865 78.8096 19.5654 79.1448C19.6541 79.48 19.7872 79.7806 19.9646 80.0468C20.1421 80.3031 20.3737 80.5101 20.6596 80.6678C20.9455 80.8255 21.2855 80.9044 21.6798 80.9044C22.3009 80.9044 22.7839 80.7417 23.1289 80.4164C23.4838 80.0911 23.7007 79.6327 23.7795 79.0413H25.066C24.928 79.9876 24.5731 80.7171 24.0013 81.2297C23.4394 81.7423 22.6705 81.9986 21.6946 81.9986C21.113 81.9986 20.5955 81.9049 20.1421 81.7176C19.6985 81.5303 19.3239 81.2642 19.0183 80.9192C18.7225 80.5742 18.4958 80.1651 18.3381 79.6919C18.1902 79.2089 18.1163 78.6815 18.1163 78.1097C18.1163 77.538 18.1902 77.0057 18.3381 76.5128C18.486 76.01 18.7078 75.5763 19.0035 75.2116C19.3091 74.837 19.6886 74.5462 20.1421 74.3392C20.5955 74.1223 21.1229 74.0139 21.7242 74.0139C22.1579 74.0139 22.5621 74.0681 22.9367 74.1765C23.3212 74.2751 23.6563 74.4328 23.9422 74.6497C24.2379 74.8666 24.4794 75.1426 24.6667 75.4777C24.854 75.803 24.9723 76.1924 25.0216 76.6459H23.7204ZM33.2445 81.8064C33.0277 81.9345 32.727 81.9986 32.3425 81.9986C32.0172 81.9986 31.756 81.9099 31.5589 81.7324C31.3716 81.5451 31.2779 81.2445 31.2779 80.8305C30.9329 81.2445 30.5287 81.5451 30.0654 81.7324C29.612 81.9099 29.1191 81.9986 28.5868 81.9986C28.2418 81.9986 27.9115 81.9592 27.5961 81.8803C27.2905 81.8014 27.0243 81.6782 26.7976 81.5106C26.5709 81.3431 26.3885 81.1262 26.2505 80.86C26.1224 80.584 26.0583 80.2538 26.0583 79.8693C26.0583 79.4356 26.1322 79.0807 26.2801 78.8047C26.4279 78.5287 26.6202 78.3069 26.8567 78.1393C27.1032 77.9619 27.3792 77.8288 27.6848 77.7401C28.0002 77.6514 28.3206 77.5774 28.6459 77.5183C28.9909 77.4493 29.3162 77.4 29.6218 77.3704C29.9373 77.331 30.2133 77.2817 30.4499 77.2225C30.6865 77.1535 30.8738 77.0599 31.0118 76.9416C31.1498 76.8135 31.2188 76.6311 31.2188 76.3945C31.2188 76.1185 31.1646 75.8967 31.0561 75.7291C30.9575 75.5615 30.8245 75.4334 30.6569 75.3447C30.4992 75.2559 30.3168 75.1968 30.1098 75.1672C29.9126 75.1376 29.7155 75.1229 29.5183 75.1229C28.986 75.1229 28.5424 75.2264 28.1875 75.4334C27.8327 75.6305 27.6404 76.01 27.6109 76.5719H26.354C26.3737 76.0988 26.4723 75.6995 26.6497 75.3742C26.8272 75.0489 27.0638 74.7877 27.3595 74.5905C27.6552 74.3835 27.9904 74.2357 28.365 74.1469C28.7494 74.0582 29.1585 74.0139 29.5923 74.0139C29.9373 74.0139 30.2774 74.0385 30.6125 74.0878C30.9575 74.1371 31.2681 74.2406 31.5441 74.3983C31.8201 74.5462 32.0419 74.7581 32.2095 75.0341C32.377 75.3102 32.4608 75.67 32.4608 76.1136V80.0468C32.4608 80.3425 32.4756 80.5594 32.5052 80.6974C32.5446 80.8354 32.6629 80.9044 32.8601 80.9044C32.9685 80.9044 33.0967 80.8797 33.2445 80.8305V81.8064ZM31.204 77.8879C31.0463 78.0062 30.8392 78.0949 30.5829 78.1541C30.3267 78.2034 30.0556 78.2477 29.7697 78.2872C29.4937 78.3167 29.2127 78.3562 28.9269 78.4055C28.641 78.4449 28.3847 78.5139 28.158 78.6125C27.9312 78.7111 27.7439 78.854 27.5961 79.0413C27.4581 79.2187 27.3891 79.4652 27.3891 79.7806C27.3891 79.9876 27.4285 80.1651 27.5074 80.3129C27.5961 80.4509 27.7045 80.5643 27.8327 80.653C27.9707 80.7417 28.1284 80.8058 28.3058 80.8452C28.4833 80.8847 28.6706 80.9044 28.8677 80.9044C29.2817 80.9044 29.6366 80.8502 29.9323 80.7417C30.2281 80.6234 30.4696 80.4805 30.6569 80.3129C30.8442 80.1355 30.9822 79.9482 31.0709 79.751C31.1596 79.544 31.204 79.3518 31.204 79.1744V77.8879ZM36.1591 74.1913H37.6821V75.3003H36.1591V80.0468C36.1591 80.1946 36.1689 80.3129 36.1887 80.4016C36.2182 80.4904 36.2675 80.5594 36.3365 80.6087C36.4055 80.6579 36.4992 80.6924 36.6175 80.7122C36.7456 80.722 36.9083 80.7269 37.1054 80.7269H37.6821V81.8359H36.721C36.3957 81.8359 36.1147 81.8162 35.8781 81.7768C35.6514 81.7275 35.4641 81.6437 35.3163 81.5254C35.1782 81.4071 35.0747 81.2395 35.0057 81.0227C34.9367 80.8058 34.9022 80.5199 34.9022 80.1651V75.3003H33.601V74.1913H34.9022V71.8994H36.1591V74.1913ZM44.3867 77.2817C44.367 76.986 44.298 76.705 44.1797 76.4389C44.0713 76.1727 43.9185 75.946 43.7213 75.7587C43.5341 75.5615 43.3073 75.4087 43.0412 75.3003C42.7849 75.182 42.499 75.1229 42.1836 75.1229C41.8582 75.1229 41.5625 75.182 41.2964 75.3003C41.0401 75.4087 40.8183 75.5615 40.631 75.7587C40.4437 75.9558 40.2958 76.1875 40.1874 76.4536C40.0789 76.7099 40.0149 76.986 39.9951 77.2817H44.3867ZM45.5992 79.4109C45.4317 80.2686 45.062 80.9142 44.4902 81.348C43.9185 81.7817 43.1989 81.9986 42.3314 81.9986C41.7202 81.9986 41.1879 81.9 40.7345 81.7029C40.2909 81.5057 39.9163 81.2297 39.6107 80.8748C39.3051 80.5199 39.0735 80.0961 38.9157 79.6032C38.7679 79.1103 38.6841 78.573 38.6644 77.9914C38.6644 77.4098 38.7531 76.8775 38.9305 76.3945C39.108 75.9115 39.3544 75.4925 39.6698 75.1376C39.9951 74.7828 40.3747 74.5068 40.8084 74.3096C41.252 74.1124 41.735 74.0139 42.2575 74.0139C42.9377 74.0139 43.4996 74.1568 43.9431 74.4427C44.3966 74.7187 44.7564 75.0736 45.0226 75.5073C45.2986 75.941 45.4859 76.4142 45.5845 76.9268C45.6929 77.4394 45.7372 77.9274 45.7175 78.3907H39.9951C39.9853 78.7258 40.0247 79.0462 40.1134 79.3518C40.2022 79.6475 40.3451 79.9137 40.5422 80.1503C40.7394 80.377 40.9908 80.5594 41.2964 80.6974C41.6019 80.8354 41.9618 80.9044 42.3758 80.9044C42.9081 80.9044 43.3418 80.7812 43.677 80.5347C44.022 80.2883 44.2487 79.9137 44.3572 79.4109H45.5992ZM47.9371 78.0802C47.9371 78.435 47.9815 78.785 48.0702 79.13C48.1688 79.4652 48.3117 79.7658 48.499 80.032C48.6962 80.2981 48.9426 80.5101 49.2383 80.6678C49.5439 80.8255 49.8988 80.9044 50.303 80.9044C50.7268 80.9044 51.0867 80.8206 51.3824 80.653C51.6781 80.4854 51.9196 80.2686 52.1069 80.0024C52.2942 79.7264 52.4273 79.4159 52.5062 79.0709C52.5949 78.7258 52.6392 78.3759 52.6392 78.021C52.6392 77.6464 52.5949 77.2866 52.5062 76.9416C52.4174 76.5867 52.2745 76.2762 52.0773 76.01C51.8901 75.7439 51.6436 75.532 51.338 75.3742C51.0324 75.2066 50.6628 75.1229 50.229 75.1229C49.8052 75.1229 49.4453 75.2066 49.1496 75.3742C48.8539 75.5418 48.6173 75.7636 48.4399 76.0396C48.2624 76.3156 48.1343 76.6311 48.0554 76.986C47.9766 77.3408 47.9371 77.7056 47.9371 78.0802ZM53.8517 81.8359H52.5949V80.8009H52.5653C52.3583 81.2248 52.033 81.5303 51.5894 81.7176C51.1458 81.9049 50.6578 81.9986 50.1255 81.9986C49.5341 81.9986 49.0165 81.8902 48.5729 81.6733C48.1392 81.4564 47.7745 81.1656 47.4787 80.8009C47.1929 80.4361 46.976 80.0123 46.8281 79.5292C46.6803 79.0462 46.6063 78.5336 46.6063 77.9914C46.6063 77.4493 46.6753 76.9367 46.8133 76.4536C46.9612 75.9706 47.1781 75.5517 47.464 75.1968C47.7597 74.8321 48.1244 74.5462 48.5582 74.3392C49.0018 74.1223 49.5144 74.0139 50.096 74.0139C50.2931 74.0139 50.505 74.0336 50.7318 74.073C50.9585 74.1124 51.1852 74.1815 51.412 74.28C51.6387 74.3687 51.8506 74.492 52.0478 74.6497C52.2548 74.7976 52.4273 74.9849 52.5653 75.2116H52.5949V71.2784H53.8517V81.8359ZM61.2316 72.8162H59.9747V71.2784H61.2316V72.8162ZM59.9747 74.1913H61.2316V81.8359H59.9747V74.1913ZM63.1787 74.1913H64.3616V75.4038H64.3912C64.9136 74.4772 65.7417 74.0139 66.8753 74.0139C67.378 74.0139 67.797 74.0829 68.1322 74.2209C68.4673 74.3589 68.7384 74.5511 68.9454 74.7976C69.1524 75.044 69.2954 75.3397 69.3742 75.6847C69.4629 76.0199 69.5073 76.3945 69.5073 76.8085V81.8359H68.2504V76.6607C68.2504 76.1875 68.1124 75.8129 67.8364 75.5369C67.5604 75.2609 67.1809 75.1229 66.6979 75.1229C66.3134 75.1229 65.9783 75.182 65.6924 75.3003C65.4164 75.4186 65.1847 75.5862 64.9974 75.803C64.8101 76.0199 64.6672 76.2762 64.5686 76.5719C64.4799 76.8578 64.4355 77.1733 64.4355 77.5183V81.8359H63.1787V74.1913ZM79.8281 81.8359H78.5712V74.3244H75.8505V73.3189C76.2054 73.3189 76.5504 73.2943 76.8855 73.245C77.2207 73.1858 77.5214 73.0823 77.7875 72.9345C78.0635 72.7866 78.2952 72.5845 78.4825 72.3282C78.6698 72.0719 78.7979 71.7466 78.8669 71.3523H79.8281V81.8359ZM89.7301 72.6387H85.5011L84.9392 75.6552L84.9688 75.6847C85.1955 75.4284 85.4863 75.2412 85.8412 75.1229C86.2059 74.9947 86.5657 74.9306 86.9206 74.9306C87.3839 74.9306 87.8226 75.0046 88.2366 75.1524C88.6506 75.3003 89.0104 75.527 89.316 75.8326C89.6216 76.1283 89.8631 76.5029 90.0406 76.9564C90.218 77.4 90.3067 77.9224 90.3067 78.5238C90.3067 78.9674 90.2279 79.4011 90.0701 79.825C89.9223 80.239 89.6956 80.6087 89.39 80.934C89.0844 81.2593 88.6999 81.5205 88.2366 81.7176C87.7832 81.9049 87.2509 81.9986 86.6397 81.9986C86.1862 81.9986 85.7574 81.9345 85.3532 81.8064C84.9589 81.6684 84.609 81.4761 84.3034 81.2297C83.9978 80.9734 83.7563 80.6579 83.5789 80.2834C83.4014 79.9088 83.3078 79.4849 83.2979 79.0117H84.5548C84.5745 79.2779 84.6386 79.5292 84.747 79.7658C84.8653 79.9926 85.0181 80.1946 85.2054 80.3721C85.4025 80.5397 85.6293 80.6727 85.8856 80.7713C86.1517 80.86 86.4425 80.9044 86.758 80.9044C87.0537 80.9044 87.3346 80.8551 87.6008 80.7565C87.8768 80.6481 88.1134 80.4904 88.3106 80.2834C88.5176 80.0763 88.6802 79.82 88.7985 79.5145C88.9168 79.199 88.9759 78.8343 88.9759 78.4203C88.9759 78.0752 88.9168 77.7598 88.7985 77.4739C88.6901 77.1782 88.5324 76.9268 88.3253 76.7198C88.1183 76.5029 87.867 76.3354 87.5712 76.2171C87.2854 76.0988 86.965 76.0396 86.6101 76.0396C86.1961 76.0396 85.8264 76.1333 85.5011 76.3206C85.1857 76.498 84.9047 76.7346 84.6583 77.0303L83.5789 76.9712L84.5548 71.5297H89.7301V72.6387ZM9.45313 94.4575C9.29541 93.7083 8.94546 93.1464 8.40329 92.7718C7.87098 92.3972 7.23516 92.2099 6.49583 92.2099C5.86494 92.2099 5.32277 92.3282 4.86931 92.5648C4.42572 92.8014 4.05605 93.1217 3.76032 93.5259C3.47445 93.9202 3.26251 94.3737 3.1245 94.8863C2.9865 95.3989 2.91749 95.9312 2.91749 96.4832C2.91749 97.0845 2.9865 97.6563 3.1245 98.1985C3.26251 98.7308 3.47445 99.199 3.76032 99.6032C4.05605 99.9975 4.43065 100.313 4.8841 100.55C5.33755 100.786 5.87972 100.904 6.51062 100.904C6.97393 100.904 7.38302 100.83 7.7379 100.683C8.10263 100.525 8.41315 100.313 8.66945 100.047C8.93561 99.7708 9.14262 99.4455 9.29048 99.0709C9.43835 98.6963 9.52707 98.2921 9.55664 97.8584H10.9614C10.8234 99.1892 10.365 100.224 9.58621 100.964C8.80746 101.703 7.74283 102.073 6.39232 102.073C5.57414 102.073 4.85946 101.935 4.24828 101.658C3.6371 101.373 3.12943 100.983 2.72527 100.49C2.3211 99.9975 2.01552 99.4159 1.8085 98.7456C1.61135 98.0752 1.51277 97.3556 1.51277 96.5867C1.51277 95.8178 1.62121 95.0982 1.83808 94.4279C2.05495 93.7477 2.37039 93.1563 2.78441 92.6535C3.20829 92.1508 3.73075 91.7565 4.35178 91.4706C4.98268 91.1749 5.70229 91.027 6.51062 91.027C7.06265 91.027 7.5851 91.1009 8.07799 91.2488C8.57087 91.3967 9.00954 91.6135 9.39399 91.8994C9.77844 92.1853 10.0988 92.5451 10.3551 92.9788C10.6114 93.4027 10.779 93.8956 10.8579 94.4575H9.45313ZM13.4112 98.021C13.4112 98.4843 13.4703 98.8983 13.5886 99.2631C13.7168 99.618 13.8893 99.9186 14.1061 100.165C14.323 100.402 14.5744 100.584 14.8603 100.712C15.156 100.84 15.4665 100.904 15.7918 100.904C16.1171 100.904 16.4227 100.84 16.7086 100.712C17.0043 100.584 17.2606 100.402 17.4775 100.165C17.6943 99.9186 17.8619 99.618 17.9802 99.2631C18.1084 98.8983 18.1724 98.4843 18.1724 98.021C18.1724 97.5577 18.1084 97.1486 17.9802 96.7937C17.8619 96.429 17.6943 96.1234 17.4775 95.877C17.2606 95.6305 17.0043 95.4432 16.7086 95.3151C16.4227 95.1869 16.1171 95.1229 15.7918 95.1229C15.4665 95.1229 15.156 95.1869 14.8603 95.3151C14.5744 95.4432 14.323 95.6305 14.1061 95.877C13.8893 96.1234 13.7168 96.429 13.5886 96.7937C13.4703 97.1486 13.4112 97.5577 13.4112 98.021ZM12.0804 98.021C12.0804 97.4591 12.1593 96.9367 12.317 96.4536C12.4747 95.9608 12.7113 95.5369 13.0267 95.182C13.3422 94.8173 13.7316 94.5314 14.1949 94.3244C14.6582 94.1174 15.1905 94.0139 15.7918 94.0139C16.403 94.0139 16.9353 94.1174 17.3888 94.3244C17.8521 94.5314 18.2414 94.8173 18.5569 95.182C18.8723 95.5369 19.1089 95.9608 19.2666 96.4536C19.4244 96.9367 19.5032 97.4591 19.5032 98.021C19.5032 98.5829 19.4244 99.1054 19.2666 99.5884C19.1089 100.071 18.8723 100.495 18.5569 100.86C18.2414 101.215 17.8521 101.496 17.3888 101.703C16.9353 101.9 16.403 101.999 15.7918 101.999C15.1905 101.999 14.6582 101.9 14.1949 101.703C13.7316 101.496 13.3422 101.215 13.0267 100.86C12.7113 100.495 12.4747 100.071 12.317 99.5884C12.1593 99.1054 12.0804 98.5829 12.0804 98.021ZM27.3137 101.836H26.1308V100.623H26.1012C25.8351 101.097 25.495 101.447 25.081 101.673C24.667 101.89 24.179 101.999 23.6171 101.999C23.1144 101.999 22.6954 101.935 22.3603 101.806C22.0251 101.668 21.754 101.476 21.547 101.23C21.34 100.983 21.1921 100.692 21.1034 100.357C21.0245 100.012 20.9851 99.6327 20.9851 99.2187V94.1913H22.242V99.3666C22.242 99.8398 22.38 100.214 22.656 100.49C22.932 100.766 23.3115 100.904 23.7946 100.904C24.179 100.904 24.5092 100.845 24.7852 100.727C25.0711 100.609 25.3077 100.441 25.495 100.224C25.6823 100.007 25.8203 99.756 25.909 99.4701C26.0076 99.1744 26.0569 98.854 26.0569 98.509V94.1913H27.3137V101.836ZM29.2015 94.1913H30.3844V95.4038H30.4139C30.9364 94.4772 31.7644 94.0139 32.8981 94.0139C33.4008 94.0139 33.8198 94.0829 34.1549 94.2209C34.4901 94.3589 34.7612 94.5511 34.9682 94.7976C35.1752 95.044 35.3181 95.3397 35.397 95.6847C35.4857 96.0199 35.5301 96.3945 35.5301 96.8085V101.836H34.2732V96.6607C34.2732 96.1875 34.1352 95.8129 33.8592 95.5369C33.5832 95.2609 33.2037 95.1229 32.7206 95.1229C32.3362 95.1229 32.001 95.182 31.7152 95.3003C31.4391 95.4186 31.2075 95.5862 31.0202 95.803C30.8329 96.0199 30.69 96.2762 30.5914 96.5719C30.5027 96.8578 30.4583 97.1733 30.4583 97.5183V101.836H29.2015V94.1913ZM39.1626 94.1913H40.6856V95.3003H39.1626V100.047C39.1626 100.195 39.1725 100.313 39.1922 100.402C39.2217 100.49 39.271 100.559 39.34 100.609C39.409 100.658 39.5027 100.692 39.621 100.712C39.7491 100.722 39.9118 100.727 40.1089 100.727H40.6856V101.836H39.7245C39.3992 101.836 39.1182 101.816 38.8817 101.777C38.6549 101.728 38.4676 101.644 38.3198 101.525C38.1818 101.407 38.0783 101.24 38.0092 101.023C37.9402 100.806 37.9057 100.52 37.9057 100.165V95.3003H36.6045V94.1913H37.9057V91.8994H39.1626V94.1913ZM42.0375 94.1913H43.2205V95.803H43.25C43.5556 95.182 43.9302 94.7236 44.3738 94.4279C44.8174 94.1322 45.3793 93.9942 46.0595 94.0139V95.3447C45.5567 95.3447 45.1279 95.4137 44.773 95.5517C44.4182 95.6897 44.1323 95.8918 43.9154 96.1579C43.6986 96.4241 43.5408 96.7494 43.4423 97.1338C43.3437 97.5084 43.2944 97.9422 43.2944 98.435V101.836H42.0375V94.1913ZM48.3367 92.8162H47.0799V91.2784H48.3367V92.8162ZM47.0799 94.1913H48.3367V101.836H47.0799V94.1913ZM55.5921 97.2817C55.5724 96.986 55.5034 96.705 55.3851 96.4389C55.2767 96.1727 55.1239 95.946 54.9268 95.7587C54.7395 95.5615 54.5127 95.4087 54.2466 95.3003C53.9903 95.182 53.7044 95.1229 53.389 95.1229C53.0637 95.1229 52.7679 95.182 52.5018 95.3003C52.2455 95.4087 52.0237 95.5615 51.8364 95.7587C51.6491 95.9558 51.5012 96.1875 51.3928 96.4536C51.2843 96.7099 51.2203 96.986 51.2006 97.2817H55.5921ZM56.8046 99.4109C56.6371 100.269 56.2674 100.914 55.6957 101.348C55.1239 101.782 54.4043 101.999 53.5368 101.999C52.9256 101.999 52.3933 101.9 51.9399 101.703C51.4963 101.506 51.1217 101.23 50.8161 100.875C50.5105 100.52 50.2789 100.096 50.1211 99.6032C49.9733 99.1103 49.8895 98.573 49.8698 97.9914C49.8698 97.4098 49.9585 96.8775 50.1359 96.3945C50.3134 95.9115 50.5598 95.4925 50.8752 95.1376C51.2006 94.7828 51.5801 94.5068 52.0138 94.3096C52.4574 94.1124 52.9404 94.0139 53.4629 94.0139C54.1431 94.0139 54.705 94.1568 55.1486 94.4427C55.602 94.7187 55.9618 95.0736 56.228 95.5073C56.504 95.941 56.6913 96.4142 56.7899 96.9268C56.8983 97.4394 56.9427 97.9274 56.9229 98.3907H51.2006C51.1907 98.7258 51.2301 99.0462 51.3188 99.3518C51.4076 99.6475 51.5505 99.9137 51.7477 100.15C51.9448 100.377 52.1962 100.559 52.5018 100.697C52.8074 100.835 53.1672 100.904 53.5812 100.904C54.1135 100.904 54.5472 100.781 54.8824 100.535C55.2274 100.288 55.4541 99.9137 55.5626 99.4109H56.8046ZM58.9947 99.4257C59.0045 99.7018 59.0686 99.9383 59.1869 100.135C59.3052 100.323 59.458 100.476 59.6453 100.594C59.8424 100.702 60.0593 100.781 60.2959 100.83C60.5423 100.88 60.7937 100.904 61.05 100.904C61.2471 100.904 61.4542 100.89 61.671 100.86C61.8879 100.83 62.085 100.776 62.2625 100.697C62.4498 100.619 62.6026 100.505 62.7209 100.357C62.8392 100.2 62.8983 100.002 62.8983 99.7658C62.8983 99.4405 62.7751 99.1941 62.5286 99.0265C62.2822 98.8589 61.9717 98.7258 61.5971 98.6273C61.2324 98.5188 60.8331 98.4252 60.3994 98.3463C59.9656 98.2576 59.5615 98.1393 59.1869 97.9914C58.8222 97.8337 58.5166 97.6169 58.2701 97.3408C58.0237 97.0648 57.9005 96.6804 57.9005 96.1875C57.9005 95.803 57.9843 95.4728 58.1518 95.1968C58.3293 94.9208 58.5511 94.699 58.8172 94.5314C59.0932 94.354 59.3988 94.2258 59.734 94.1469C60.079 94.0582 60.4191 94.0139 60.7543 94.0139C61.188 94.0139 61.5872 94.0533 61.952 94.1322C62.3167 94.2012 62.6371 94.3293 62.9131 94.5166C63.199 94.694 63.4257 94.9405 63.5933 95.2559C63.7609 95.5615 63.8594 95.946 63.889 96.4093H62.6321C62.6124 96.1628 62.5484 95.9608 62.4399 95.803C62.3315 95.6355 62.1935 95.5024 62.0259 95.4038C61.8583 95.3052 61.671 95.2362 61.464 95.1968C61.2669 95.1475 61.0648 95.1229 60.8578 95.1229C60.6705 95.1229 60.4782 95.1376 60.2811 95.1672C60.0938 95.1968 59.9213 95.251 59.7636 95.3299C59.6058 95.3989 59.4777 95.4975 59.3791 95.6256C59.2805 95.7439 59.2313 95.9016 59.2313 96.0988C59.2313 96.3156 59.3052 96.498 59.453 96.6459C59.6108 96.7839 59.8079 96.9022 60.0445 97.0007C60.2811 97.0895 60.5473 97.1683 60.843 97.2373C61.1387 97.2965 61.4344 97.3606 61.7302 97.4296C62.0456 97.4986 62.3512 97.5823 62.6469 97.6809C62.9525 97.7795 63.2187 97.9126 63.4454 98.0802C63.682 98.2379 63.8693 98.44 64.0073 98.6864C64.1552 98.9329 64.2291 99.2384 64.2291 99.6032C64.2291 100.066 64.1305 100.451 63.9334 100.757C63.7461 101.062 63.4947 101.309 63.1793 101.496C62.8737 101.683 62.5237 101.811 62.1294 101.88C61.745 101.959 61.3605 101.999 60.9761 101.999C60.5522 101.999 60.148 101.954 59.7636 101.866C59.3791 101.777 59.039 101.634 58.7433 101.437C58.4476 101.23 58.211 100.964 58.0335 100.638C57.8561 100.303 57.7575 99.8989 57.7378 99.4257H58.9947Z" fill="white"/>
<defs>
<clipPath id="clip0_1989_2137">
<rect width="30.5314" height="30.5314" fill="white" transform="translate(9.7832 9.76489)"/>
</clipPath>
</defs>
</svg>
