<svg width="50" height="50" viewBox="0 0 50 50" fill="none" xmlns="http://www.w3.org/2000/svg">
<circle cx="25.0476" cy="25.0303" r="24.1707" fill="#D9D9D9" fill-opacity="0.08"/>
<g clip-path="url(#clip0_1989_2138)">
<path d="M36.0144 20.5146C34.6787 14.6373 29.5519 11.9912 25.0485 11.9912C25.0485 11.9912 25.0485 11.9912 25.0358 11.9912C20.5452 11.9912 15.4057 14.6245 14.07 20.5018C12.5816 27.0661 16.6015 32.6253 20.2398 36.1237C21.5883 37.4213 23.3184 38.0701 25.0485 38.0701C26.7787 38.0701 28.5088 37.4213 29.8445 36.1237C33.4828 32.6253 37.5028 27.0788 36.0144 20.5146ZM25.0485 26.888C22.835 26.888 21.0413 25.0943 21.0413 22.8807C21.0413 20.6672 22.835 18.8735 25.0485 18.8735C27.2621 18.8735 29.0558 20.6672 29.0558 22.8807C29.0558 25.0943 27.2621 26.888 25.0485 26.888Z" fill="white"/>
</g>
<defs>
<clipPath id="clip0_1989_2138">
<rect width="30.5314" height="30.5314" fill="white" transform="translate(9.7832 9.76489)"/>
</clipPath>
</defs>
</svg>
