<svg width="50" height="50" viewBox="0 0 50 50" fill="none" xmlns="http://www.w3.org/2000/svg">
<circle cx="25.0926" cy="25.0303" r="24.1707" fill="#D9D9D9" fill-opacity="0.08"/>
<path d="M35.336 23.2879L29.3951 20.7309L28.0721 20.1712C27.8685 20.0694 27.6904 19.8022 27.6904 19.5733V15.6805C27.6904 14.4593 26.7872 13.009 25.6932 12.4493C25.3115 12.2584 24.8536 12.2584 24.4719 12.4493C23.3906 13.009 22.4874 14.472 22.4874 15.6932V19.586C22.4874 19.815 22.3093 20.0821 22.1057 20.1839L14.8545 23.3006C14.0531 23.6314 13.4043 24.6364 13.4043 25.5014V27.1807C13.4043 28.262 14.2185 28.7963 15.2235 28.3638L21.5969 25.6159C22.093 25.3997 22.5001 25.6668 22.5001 26.2138V27.6259V29.9158C22.5001 30.2084 22.3347 30.6282 22.1312 30.8317L19.1798 33.7958C18.8745 34.1011 18.7346 34.699 18.8745 35.1315L19.447 36.8617C19.676 37.6122 20.5283 37.9684 21.228 37.6122L24.2557 35.0679C24.7136 34.6736 25.4642 34.6736 25.9222 35.0679L28.9499 37.6122C29.6495 37.9557 30.5019 37.6122 30.7563 36.8617L31.3288 35.1315C31.4687 34.7117 31.3288 34.1011 31.0235 33.7958L28.0721 30.8317C27.8558 30.6282 27.6904 30.2084 27.6904 29.9158V26.2138C27.6904 25.6668 28.0848 25.4124 28.5937 25.6159L34.9671 28.3638C35.9721 28.7963 36.7863 28.262 36.7863 27.1807V25.5014C36.7863 24.6364 36.1375 23.6314 35.336 23.2879Z" fill="white"/>
</svg>
